<svg id="svg" version="1.1" width="400" height="462.4277456647399" viewBox="0 0 400 462.4277456647399" xmlns="http://www.w3.org/2000/svg" xmlns:xlink="http://www.w3.org/1999/xlink" style="display: block;"><g id="svgg"><path id="path0" d="M121.931 101.300 C 119.801 104.299,89.473 134.086,88.047 134.580 C 85.972 135.298,86.051 133.276,86.255 180.000 C 86.465 228.327,86.344 225.318,88.110 226.033 C 88.878 226.344,95.959 233.079,105.600 242.667 C 125.241 262.201,123.002 260.287,126.525 260.556 C 131.641 260.946,165.036 261.233,196.000 261.152 C 232.816 261.057,229.902 261.008,231.652 261.753 C 235.218 263.270,236.111 265.742,235.932 273.600 C 235.778 280.380,235.098 282.008,231.770 283.572 C 229.652 284.568,209.532 284.830,205.124 283.920 C 203.358 283.555,202.486 283.550,201.499 283.900 C 200.467 284.265,116.849 284.564,89.079 284.301 C 86.332 284.275,86.450 283.649,86.150 299.812 C 85.824 317.373,85.826 317.391,88.193 318.438 C 89.662 319.088,93.625 322.629,96.042 325.451 C 96.395 325.863,97.385 326.835,98.242 327.611 C 99.099 328.387,100.093 329.377,100.451 329.811 C 100.809 330.245,101.812 331.230,102.680 332.000 C 103.547 332.770,104.424 333.676,104.628 334.014 C 104.833 334.352,105.848 335.313,106.884 336.149 C 107.921 336.986,108.871 337.995,108.997 338.391 C 109.123 338.787,109.947 339.588,110.828 340.171 C 111.710 340.755,112.753 341.760,113.145 342.406 C 113.538 343.052,114.657 344.190,115.632 344.934 C 116.607 345.678,117.662 346.769,117.977 347.357 C 118.292 347.946,119.127 348.784,119.832 349.220 C 120.538 349.656,121.411 350.637,121.774 351.401 C 122.136 352.164,122.773 352.972,123.190 353.195 C 124.025 353.642,266.083 353.698,268.200 353.253 C 269.018 353.080,269.605 352.589,270.046 351.708 C 270.401 350.997,277.392 343.715,285.582 335.526 C 293.772 327.338,301.028 319.819,301.706 318.819 C 302.384 317.818,303.447 316.408,304.070 315.685 C 306.880 312.420,307.356 303.331,305.300 292.171 L 304.200 286.200 304.151 259.502 L 304.102 232.804 301.998 229.159 C 298.796 223.610,268.050 192.785,265.461 192.528 C 264.548 192.437,240.310 192.326,211.600 192.281 C 155.133 192.193,158.200 192.321,157.004 190.008 C 156.269 188.587,156.147 177.129,156.839 174.634 C 157.806 171.152,160.723 168.883,164.412 168.744 C 165.616 168.698,197.200 168.706,234.600 168.761 C 306.877 168.868,304.419 168.924,305.891 167.123 C 307.643 164.980,306.179 137.600,304.312 137.600 C 304.132 137.600,303.191 136.385,302.221 134.900 C 301.036 133.083,296.195 127.952,287.429 119.219 C 280.263 112.080,274.400 106.106,274.400 105.944 C 274.400 105.782,273.603 105.077,272.629 104.378 C 271.655 103.678,270.640 102.580,270.374 101.938 C 269.543 99.931,272.203 100.000,195.654 100.000 L 122.854 100.000 121.931 101.300 " stroke="none" fill="#f3f9f9" fill-rule="evenodd"></path><path id="path1" d="M170.667 13.467 C 170.160 13.974,170.401 14.497,170.937 14.052 C 171.232 13.807,171.592 13.725,171.737 13.870 C 171.882 14.015,172.000 13.923,172.000 13.667 C 172.000 13.164,171.104 13.030,170.667 13.467 M168.141 15.597 C 167.071 16.029,166.639 16.667,167.418 16.667 C 167.738 16.667,167.906 16.572,167.791 16.457 C 167.675 16.342,168.080 16.027,168.691 15.756 C 169.944 15.201,169.466 15.063,168.141 15.597 M232.400 16.386 C 232.400 16.598,232.805 16.984,233.300 17.244 C 234.195 17.714,234.196 17.712,233.438 16.858 C 232.591 15.905,232.400 15.818,232.400 16.386 M236.237 19.000 C 237.001 20.167,237.411 20.342,236.828 19.253 C 236.608 18.842,236.542 18.392,236.681 18.253 C 236.820 18.114,236.629 18.000,236.257 18.000 C 235.628 18.000,235.627 18.069,236.237 19.000 M240.500 20.432 C 240.885 20.656,241.200 21.090,241.200 21.396 C 241.200 21.702,241.378 22.063,241.595 22.197 C 241.831 22.343,241.887 22.150,241.733 21.721 C 241.362 20.680,240.770 19.998,240.251 20.012 C 240.003 20.019,240.115 20.208,240.500 20.432 M276.770 41.747 C 277.852 42.923,278.066 43.038,277.780 42.291 C 277.672 42.012,277.183 41.538,276.692 41.239 C 275.841 40.720,275.845 40.744,276.770 41.747 M115.442 45.532 C 115.199 45.925,116.660 45.873,117.059 45.475 C 117.210 45.324,116.954 45.200,116.490 45.200 C 116.027 45.200,115.555 45.349,115.442 45.532 M67.100 73.757 C 66.351 74.325,66.155 75.200,66.776 75.200 C 67.201 75.200,67.740 74.450,67.853 73.700 C 67.945 73.098,67.970 73.096,67.100 73.757 M335.600 75.991 C 335.600 76.216,335.767 76.400,335.971 76.400 C 336.176 76.400,336.626 76.683,336.971 77.029 C 337.317 77.374,337.600 77.485,337.600 77.275 C 337.600 77.064,337.150 76.597,336.600 76.237 C 336.050 75.876,335.600 75.766,335.600 75.991 M389.040 106.760 C 389.389 107.459,389.951 107.980,390.329 107.954 C 390.925 107.912,390.922 107.887,390.300 107.724 C 389.915 107.624,389.600 107.307,389.600 107.020 C 389.600 106.733,389.335 106.278,389.011 106.009 C 388.511 105.594,388.516 105.709,389.040 106.760 M392.569 108.667 C 392.622 109.033,392.957 109.376,393.313 109.428 C 393.851 109.507,393.880 109.397,393.483 108.762 C 392.896 107.822,392.438 107.774,392.569 108.667 M0.000 231.800 C 0.000 350.952,-0.069 346.211,1.627 344.167 C 1.916 343.819,3.198 343.007,4.476 342.362 C 5.754 341.716,6.800 341.025,6.800 340.826 C 6.800 340.627,7.348 340.343,8.018 340.196 C 8.687 340.049,9.542 339.609,9.918 339.217 C 10.293 338.826,11.261 338.293,12.068 338.033 C 12.875 337.772,13.773 337.274,14.062 336.925 C 14.352 336.576,15.345 335.966,16.269 335.570 C 17.194 335.174,18.303 334.497,18.734 334.066 C 19.166 333.634,20.089 333.156,20.786 333.003 C 21.484 332.850,22.145 332.488,22.256 332.199 C 22.367 331.910,23.030 331.448,23.729 331.172 C 24.428 330.896,25.360 330.369,25.800 330.000 C 26.240 329.631,27.230 329.092,28.000 328.801 C 28.770 328.510,29.860 327.851,30.422 327.336 C 30.984 326.821,31.735 326.400,32.091 326.400 C 32.447 326.400,33.249 325.971,33.873 325.446 C 34.496 324.921,35.635 324.189,36.403 323.818 C 39.521 322.315,41.189 321.351,42.071 320.540 C 42.582 320.071,43.566 319.567,44.259 319.421 C 44.951 319.274,45.840 318.798,46.234 318.363 C 46.628 317.927,47.681 317.206,48.575 316.760 C 51.384 315.359,53.674 314.056,54.349 313.474 C 54.707 313.166,55.613 312.707,56.363 312.455 C 57.113 312.204,57.964 311.659,58.253 311.245 C 58.543 310.831,59.386 310.379,60.126 310.240 C 60.866 310.101,61.883 309.550,62.386 309.015 C 62.889 308.479,63.795 307.933,64.400 307.800 C 65.005 307.667,65.914 307.118,66.419 306.579 C 66.925 306.041,67.654 305.600,68.039 305.600 C 68.424 305.600,69.247 305.175,69.869 304.655 C 70.491 304.135,71.450 303.574,72.000 303.409 C 72.550 303.243,73.362 302.777,73.805 302.373 C 74.248 301.969,75.327 301.339,76.202 300.973 C 77.077 300.608,78.304 299.879,78.927 299.354 C 79.551 298.829,80.247 298.400,80.475 298.400 C 81.139 298.400,84.797 295.907,84.830 295.433 C 84.846 295.195,84.992 292.300,85.155 289.000 C 85.555 280.884,85.484 280.991,90.144 281.434 C 92.155 281.625,96.770 281.743,100.400 281.696 C 104.030 281.649,127.991 281.511,153.646 281.390 L 200.293 281.169 200.983 279.637 C 202.165 277.017,201.752 265.813,200.434 264.747 C 199.496 263.988,198.660 263.966,170.634 263.988 C 134.213 264.016,125.069 263.614,121.680 261.839 C 121.119 261.545,113.716 254.374,105.230 245.904 C 95.631 236.323,89.179 230.189,88.157 229.673 C 87.169 229.173,86.337 228.396,86.070 227.721 C 85.676 226.729,85.090 193.763,85.236 180.800 C 85.260 178.710,85.153 174.789,84.998 172.087 L 84.718 167.174 83.125 166.287 C 82.248 165.799,81.019 165.114,80.394 164.764 C 79.768 164.415,78.749 163.792,78.128 163.381 C 76.931 162.588,74.708 161.332,72.400 160.146 C 71.630 159.750,70.469 159.060,69.821 158.613 C 68.567 157.749,66.296 156.487,64.003 155.382 C 63.235 155.011,62.096 154.279,61.473 153.754 C 60.849 153.229,60.117 152.800,59.847 152.800 C 59.577 152.800,58.735 152.337,57.978 151.772 C 57.220 151.207,56.060 150.482,55.400 150.161 C 54.740 149.841,53.120 148.959,51.800 148.202 C 50.480 147.446,48.652 146.449,47.739 145.987 C 46.825 145.526,45.762 144.800,45.377 144.374 C 44.991 143.948,44.358 143.600,43.969 143.600 C 43.580 143.600,42.751 143.171,42.127 142.646 C 41.504 142.121,40.365 141.391,39.597 141.024 C 37.946 140.236,36.390 139.363,34.202 137.997 C 33.323 137.449,31.928 136.694,31.102 136.320 C 30.276 135.945,29.600 135.464,29.600 135.251 C 29.600 135.037,28.925 134.646,28.100 134.382 C 27.275 134.118,26.240 133.581,25.800 133.190 C 25.360 132.799,24.145 132.081,23.100 131.595 C 22.055 131.109,21.200 130.566,21.200 130.388 C 21.200 130.209,20.684 129.950,20.054 129.812 C 19.424 129.673,18.541 129.218,18.092 128.800 C 17.644 128.382,16.449 127.651,15.438 127.176 C 14.427 126.701,13.600 126.167,13.600 125.989 C 13.600 125.811,12.799 125.360,11.820 124.986 C 10.840 124.612,9.732 123.967,9.358 123.553 C 8.983 123.139,8.358 122.800,7.969 122.800 C 7.580 122.800,6.753 122.383,6.131 121.873 C 5.509 121.363,4.421 120.714,3.713 120.430 C 3.006 120.146,2.219 119.663,1.964 119.357 C 1.710 119.051,1.164 118.800,0.751 118.800 C 0.018 118.800,0.000 121.523,0.000 231.800 M393.390 119.617 C 393.248 119.846,392.427 120.316,391.566 120.660 C 390.705 121.005,390.000 121.440,390.000 121.627 C 390.000 121.815,389.286 122.182,388.414 122.443 C 387.542 122.704,386.431 123.342,385.945 123.859 C 385.458 124.377,384.738 124.800,384.344 124.800 C 383.950 124.800,383.013 125.340,382.261 126.000 C 381.509 126.660,380.718 127.200,380.503 127.200 C 380.288 127.200,379.476 127.631,378.699 128.158 C 377.923 128.685,376.638 129.352,375.844 129.639 C 375.050 129.926,374.400 130.311,374.400 130.495 C 374.400 130.678,373.567 131.186,372.548 131.622 C 371.530 132.059,370.166 132.862,369.518 133.408 C 368.869 133.954,368.096 134.400,367.800 134.400 C 367.504 134.400,366.751 134.829,366.127 135.354 C 365.504 135.879,364.365 136.611,363.597 136.980 C 362.828 137.349,361.120 138.262,359.800 139.008 C 358.480 139.754,356.772 140.663,356.003 141.028 C 355.235 141.393,354.096 142.121,353.473 142.646 C 352.849 143.171,352.107 143.600,351.823 143.600 C 351.540 143.600,350.856 143.955,350.304 144.389 C 349.119 145.321,346.468 146.853,344.125 147.959 C 343.204 148.394,342.079 149.121,341.625 149.575 C 341.171 150.029,340.526 150.400,340.190 150.400 C 339.855 150.400,338.665 151.030,337.545 151.800 C 336.426 152.570,335.282 153.200,335.004 153.200 C 334.726 153.200,334.253 153.495,333.955 153.855 C 333.656 154.215,332.689 154.858,331.806 155.285 C 328.625 156.822,326.867 157.812,326.125 158.485 C 325.710 158.861,324.715 159.444,323.913 159.779 C 323.111 160.114,322.336 160.580,322.191 160.815 C 322.045 161.050,320.998 161.690,319.863 162.238 C 318.728 162.785,316.900 163.751,315.800 164.384 C 314.700 165.017,313.048 165.908,312.128 166.365 C 311.209 166.821,309.499 168.173,308.328 169.370 C 305.549 172.212,302.921 173.180,299.400 172.658 C 298.080 172.463,276.607 172.231,251.683 172.143 L 206.366 171.983 205.783 173.379 C 204.647 176.098,204.961 188.551,206.186 189.354 C 207.072 189.934,210.267 190.000,237.648 190.000 L 268.124 190.000 269.462 191.020 C 270.198 191.582,270.800 192.231,270.800 192.464 C 270.800 192.696,277.870 199.953,286.512 208.590 C 295.153 217.226,302.668 224.943,303.212 225.738 C 303.755 226.533,304.710 227.395,305.334 227.654 C 307.372 228.501,307.348 228.140,307.586 261.400 C 307.841 297.041,307.556 294.430,311.408 296.336 C 312.504 296.878,313.457 297.464,313.526 297.639 C 313.595 297.813,314.315 298.171,315.126 298.435 C 315.937 298.700,317.109 299.340,317.731 299.858 C 318.353 300.376,319.111 300.800,319.417 300.800 C 319.722 300.800,320.573 301.328,321.308 301.973 C 322.042 302.618,323.174 303.269,323.822 303.421 C 324.470 303.572,325.228 303.984,325.508 304.335 C 326.001 304.955,327.589 305.870,331.103 307.557 C 332.039 308.006,333.182 308.725,333.642 309.154 C 334.102 309.582,334.956 310.051,335.540 310.195 C 336.123 310.339,337.050 310.874,337.600 311.384 C 338.150 311.893,339.050 312.442,339.600 312.602 C 340.150 312.763,340.893 313.151,341.251 313.465 C 341.960 314.086,344.370 315.448,347.200 316.827 C 348.190 317.309,349.320 318.038,349.711 318.447 C 350.102 318.856,350.912 319.311,351.511 319.458 C 352.110 319.605,353.226 320.237,353.991 320.863 C 354.756 321.488,355.576 322.000,355.813 322.000 C 356.051 322.000,356.855 322.450,357.600 323.000 C 358.345 323.550,359.256 324.000,359.623 324.000 C 359.990 324.000,360.720 324.426,361.245 324.946 C 361.770 325.466,362.650 326.027,363.200 326.191 C 363.750 326.355,364.650 326.895,365.200 327.391 C 365.750 327.886,366.798 328.491,367.530 328.735 C 368.261 328.979,369.400 329.634,370.061 330.190 C 370.721 330.745,371.493 331.200,371.777 331.200 C 372.060 331.200,372.758 331.566,373.327 332.014 C 373.897 332.462,374.956 333.033,375.681 333.283 C 376.407 333.533,377.221 334.046,377.491 334.423 C 377.761 334.800,378.471 335.231,379.069 335.382 C 379.667 335.532,380.758 336.182,381.492 336.827 C 382.227 337.472,383.168 338.000,383.583 338.000 C 383.999 338.000,384.847 338.417,385.469 338.927 C 386.091 339.437,387.185 340.089,387.900 340.375 C 388.615 340.662,389.200 341.028,389.200 341.188 C 389.200 341.348,389.965 341.809,390.900 342.213 C 391.835 342.617,393.003 343.304,393.496 343.740 C 394.363 344.506,394.417 344.509,395.196 343.804 C 395.993 343.082,396.000 342.656,396.002 291.638 C 396.004 260.338,396.156 239.273,396.392 237.832 C 396.783 235.445,398.277 233.200,399.475 233.200 C 400.179 233.200,400.204 230.007,399.500 229.984 C 399.225 229.975,398.370 229.429,397.600 228.771 L 396.200 227.575 396.000 173.887 C 395.890 144.359,395.654 119.975,395.476 119.700 C 395.084 119.094,393.746 119.040,393.390 119.617 M163.883 171.800 C 160.057 172.878,159.177 174.992,159.301 182.801 L 159.400 189.000 160.800 189.477 C 163.155 190.281,199.552 190.189,200.711 189.377 C 201.572 188.774,201.600 188.534,201.600 181.764 C 201.600 172.849,201.377 172.169,198.334 171.823 C 194.555 171.394,165.396 171.374,163.883 171.800 M303.145 174.934 C 303.389 175.228,304.311 175.707,305.194 175.998 C 306.077 176.290,306.800 176.677,306.800 176.858 C 306.800 177.040,307.835 177.733,309.100 178.398 C 310.365 179.063,312.300 180.138,313.400 180.787 C 314.500 181.436,316.030 182.285,316.800 182.675 C 317.570 183.064,318.709 183.791,319.331 184.291 C 319.953 184.791,320.691 185.200,320.971 185.200 C 321.251 185.200,322.182 185.699,323.040 186.308 C 323.898 186.917,325.050 187.651,325.600 187.939 C 326.150 188.227,327.680 189.070,329.000 189.813 C 330.320 190.556,332.030 191.459,332.800 191.819 C 333.570 192.180,334.650 192.887,335.200 193.392 C 335.750 193.897,336.650 194.438,337.200 194.595 C 338.126 194.859,339.773 195.816,342.507 197.680 C 343.116 198.095,344.376 198.800,345.307 199.247 C 348.249 200.658,350.497 201.953,351.363 202.734 C 351.823 203.149,352.818 203.696,353.574 203.950 C 354.330 204.203,355.251 204.684,355.621 205.019 C 356.450 205.769,360.786 208.400,361.193 208.400 C 361.355 208.400,362.125 208.832,362.903 209.360 C 363.681 209.888,364.741 210.448,365.259 210.605 C 365.776 210.762,366.650 211.303,367.200 211.808 C 367.750 212.313,368.830 213.011,369.600 213.359 C 370.370 213.708,371.900 214.533,373.000 215.194 C 374.100 215.855,375.810 216.801,376.800 217.298 C 377.790 217.794,378.840 218.427,379.134 218.706 C 379.428 218.984,380.452 219.568,381.410 220.004 C 382.368 220.441,383.272 220.993,383.420 221.232 C 383.567 221.471,384.433 222.025,385.344 222.463 C 387.507 223.503,389.794 224.780,391.892 226.120 C 392.823 226.714,393.723 227.200,393.893 227.200 C 394.288 227.200,395.919 230.347,396.070 231.400 C 396.200 232.304,394.579 236.000,394.054 236.000 C 393.866 236.000,393.052 236.448,392.245 236.995 C 391.439 237.542,390.352 238.097,389.829 238.228 C 389.307 238.360,388.546 238.774,388.140 239.149 C 387.452 239.782,385.116 241.203,382.151 242.793 C 381.464 243.161,380.420 243.840,379.832 244.303 C 379.244 244.766,378.243 245.259,377.609 245.398 C 376.974 245.537,376.232 245.920,375.959 246.249 C 375.687 246.577,374.848 247.103,374.096 247.418 C 373.344 247.732,372.191 248.442,371.534 248.995 C 370.876 249.548,370.096 250.000,369.800 250.000 C 369.504 250.000,368.753 250.425,368.131 250.945 C 367.509 251.465,366.550 252.023,366.000 252.185 C 365.450 252.347,364.334 252.931,363.519 253.481 C 361.803 254.641,359.981 255.680,358.003 256.624 C 357.235 256.991,356.096 257.721,355.473 258.246 C 354.849 258.771,354.155 259.200,353.931 259.200 C 353.707 259.200,352.965 259.605,352.283 260.100 C 350.929 261.082,348.933 262.196,345.737 263.752 C 344.602 264.305,343.560 264.942,343.420 265.167 C 343.281 265.393,342.409 265.945,341.483 266.395 C 340.558 266.844,338.810 267.836,337.600 268.599 C 336.390 269.362,334.545 270.374,333.500 270.847 C 332.455 271.320,331.600 271.843,331.600 272.010 C 331.600 272.177,330.859 272.610,329.953 272.972 C 329.047 273.335,327.725 274.074,327.015 274.616 C 326.305 275.157,325.526 275.600,325.283 275.600 C 325.040 275.600,324.351 276.054,323.752 276.610 C 323.153 277.165,322.198 277.732,321.631 277.870 C 321.064 278.009,320.091 278.544,319.469 279.061 C 318.847 279.577,318.160 280.000,317.941 280.000 C 317.723 280.000,316.759 280.540,315.800 281.200 C 314.841 281.860,313.877 282.400,313.659 282.400 C 313.440 282.400,312.725 282.851,312.071 283.402 C 310.298 284.893,308.583 285.135,308.262 283.939 C 308.124 283.422,308.008 270.989,308.005 256.308 C 307.999 226.393,308.044 226.901,305.361 225.932 C 304.613 225.661,304.000 225.278,304.000 225.080 C 304.000 224.883,296.836 217.555,288.080 208.796 C 279.324 200.036,271.958 192.425,271.710 191.881 C 271.221 190.808,274.430 187.600,275.992 187.600 C 276.368 187.600,276.989 187.254,277.372 186.831 C 277.755 186.407,278.998 185.582,280.134 184.997 C 283.628 183.198,285.618 182.083,286.203 181.597 C 286.734 181.157,287.561 180.685,291.481 178.587 C 292.406 178.093,293.645 177.308,294.235 176.844 C 294.825 176.380,295.599 175.999,295.954 175.998 C 296.309 175.997,297.140 175.650,297.800 175.227 C 299.220 174.318,302.485 174.139,303.145 174.934 M84.806 205.524 C 84.814 228.855,85.143 231.200,88.414 231.200 C 88.835 231.200,95.569 237.627,104.470 246.525 C 122.813 264.861,122.113 264.400,131.620 264.400 C 135.796 264.400,136.817 264.703,135.371 265.512 C 135.024 265.706,134.529 266.300,134.269 266.832 C 134.009 267.365,133.057 268.160,132.152 268.600 C 131.247 269.040,130.223 269.639,129.875 269.931 C 129.200 270.499,126.677 271.924,124.425 273.010 C 123.669 273.375,122.482 274.107,121.788 274.637 C 121.093 275.166,120.254 275.600,119.924 275.600 C 119.594 275.600,119.005 275.953,118.615 276.383 C 118.225 276.814,117.029 277.458,115.958 277.814 C 114.886 278.170,113.918 278.609,113.806 278.790 C 113.694 278.971,112.657 279.331,111.501 279.589 C 110.346 279.846,109.037 280.232,108.594 280.446 C 107.017 281.206,92.927 280.652,90.000 279.715 C 85.900 278.402,83.081 277.255,82.788 276.781 C 82.640 276.541,81.637 275.936,80.559 275.436 C 79.482 274.936,78.353 274.229,78.051 273.864 C 77.749 273.499,77.209 273.192,76.851 273.183 C 76.493 273.174,74.940 272.369,73.400 271.395 C 71.860 270.420,69.880 269.253,69.000 268.801 C 68.120 268.349,66.230 267.271,64.800 266.405 C 63.370 265.539,61.480 264.465,60.600 264.018 C 59.720 263.571,57.560 262.306,55.800 261.207 C 54.040 260.108,52.394 259.207,52.142 259.205 C 51.890 259.202,51.260 258.753,50.742 258.207 C 50.224 257.661,49.559 257.211,49.264 257.207 C 48.969 257.203,46.960 256.120,44.800 254.800 C 42.640 253.480,40.690 252.400,40.467 252.400 C 40.244 252.400,39.540 251.962,38.904 251.426 C 38.267 250.890,37.280 250.335,36.711 250.192 C 36.142 250.049,35.267 249.498,34.768 248.966 C 34.269 248.435,33.577 247.999,33.230 247.999 C 32.884 247.998,31.978 247.593,31.218 247.099 C 28.547 245.363,26.185 243.992,24.594 243.254 C 23.711 242.844,22.744 242.215,22.445 241.855 C 22.147 241.495,21.674 241.200,21.396 241.200 C 21.118 241.200,20.015 240.605,18.945 239.878 C 17.875 239.150,16.415 238.318,15.700 238.029 C 14.985 237.740,14.400 237.356,14.400 237.177 C 14.400 236.998,13.770 236.624,13.000 236.346 C 12.230 236.067,11.600 235.717,11.600 235.567 C 11.600 235.418,10.599 234.789,9.376 234.170 C 6.334 232.631,5.873 230.552,8.337 229.492 C 8.922 229.240,10.120 228.572,11.000 228.006 C 11.880 227.441,13.230 226.665,14.000 226.282 C 14.770 225.899,16.210 225.053,17.200 224.402 C 18.190 223.750,19.900 222.763,21.000 222.207 C 22.100 221.651,24.080 220.571,25.400 219.807 C 26.720 219.042,28.340 218.122,29.000 217.762 C 29.660 217.401,30.560 216.788,31.000 216.399 C 31.440 216.010,32.250 215.557,32.800 215.391 C 33.350 215.226,34.552 214.575,35.472 213.945 C 36.392 213.315,37.275 212.800,37.434 212.800 C 37.594 212.800,38.293 212.366,38.988 211.837 C 39.682 211.307,40.869 210.577,41.625 210.215 C 42.381 209.853,43.540 209.244,44.200 208.861 C 44.860 208.479,46.795 207.392,48.500 206.447 C 50.205 205.501,51.600 204.578,51.600 204.396 C 51.600 204.213,52.144 203.944,52.810 203.798 C 53.475 203.652,54.510 203.119,55.110 202.615 C 55.709 202.110,57.046 201.300,58.080 200.814 C 59.113 200.329,60.170 199.677,60.429 199.366 C 60.687 199.054,61.101 198.800,61.349 198.800 C 61.597 198.799,62.323 198.349,62.962 197.800 C 63.601 197.250,64.384 196.800,64.702 196.800 C 65.221 196.800,67.622 195.473,71.600 192.989 C 74.028 191.472,75.749 190.473,77.400 189.620 C 78.280 189.166,80.170 188.095,81.600 187.241 C 83.030 186.387,84.335 185.769,84.500 185.868 C 84.665 185.967,84.803 194.812,84.806 205.524 M215.076 264.300 L 206.353 264.416 205.776 265.795 C 204.814 268.097,204.973 278.248,205.996 279.800 L 206.786 281.000 217.293 281.200 C 232.300 281.486,232.313 281.479,232.446 272.735 C 232.556 265.569,231.357 263.912,226.200 264.097 C 224.880 264.145,219.874 264.236,215.076 264.300 M376.400 363.461 C 375.849 363.752,375.669 363.988,376.000 363.988 C 376.690 363.988,377.870 363.320,377.588 363.089 C 377.485 363.004,376.950 363.171,376.400 363.461 M34.056 369.141 C 34.310 369.548,34.897 370.111,35.359 370.391 C 35.948 370.747,35.848 370.525,35.025 369.650 C 33.688 368.227,33.386 368.069,34.056 369.141 M360.142 372.493 C 360.020 372.691,360.002 372.935,360.103 373.036 C 360.356 373.289,361.600 372.780,361.600 372.424 C 361.600 372.008,360.407 372.064,360.142 372.493 M59.600 384.307 C 59.600 384.485,60.176 384.674,60.879 384.727 C 62.360 384.840,62.281 384.628,60.700 384.249 C 60.095 384.104,59.600 384.130,59.600 384.307 M336.792 385.410 C 336.514 385.745,336.402 386.135,336.543 386.276 C 336.684 386.418,336.800 386.313,336.800 386.043 C 336.800 385.773,337.008 385.681,337.262 385.838 C 337.535 386.007,337.616 385.949,337.459 385.696 C 337.314 385.461,337.421 385.177,337.698 385.066 C 338.011 384.940,338.030 384.851,337.749 384.832 C 337.501 384.814,337.070 385.074,336.792 385.410 M63.179 386.178 C 63.707 386.740,64.200 387.200,64.273 387.200 C 64.634 387.200,63.339 385.585,62.818 385.386 C 62.488 385.259,62.651 385.616,63.179 386.178 M66.400 387.844 C 66.400 388.407,67.265 389.200,67.880 389.200 C 68.166 389.200,68.400 389.009,68.400 388.776 C 68.400 388.543,68.193 388.481,67.939 388.638 C 67.686 388.794,67.236 388.590,66.939 388.185 C 66.643 387.779,66.400 387.625,66.400 387.844 M78.400 394.990 C 78.400 395.094,78.985 395.465,79.700 395.814 L 81.000 396.448 80.000 395.633 C 79.037 394.848,78.400 394.592,78.400 394.990 M292.967 410.943 C 292.828 411.304,292.464 411.600,292.157 411.600 C 291.851 411.600,291.600 411.786,291.600 412.014 C 291.600 412.299,291.843 412.298,292.378 412.012 C 293.288 411.525,293.777 410.843,293.449 410.516 C 293.323 410.389,293.105 410.581,292.967 410.943 M111.362 413.538 C 111.521 413.796,111.416 414.005,111.124 414.012 C 110.814 414.019,110.898 414.198,111.330 414.449 C 111.732 414.682,112.167 414.767,112.297 414.637 C 112.427 414.506,112.313 414.400,112.043 414.400 C 111.773 414.400,111.656 414.232,111.783 414.028 C 111.909 413.823,111.802 413.525,111.545 413.366 C 111.252 413.185,111.184 413.250,111.362 413.538 M138.419 429.495 C 138.927 430.207,139.436 430.697,139.550 430.583 C 139.664 430.469,139.249 429.886,138.626 429.288 L 137.495 428.200 138.419 429.495 M261.632 428.900 C 261.604 429.510,261.195 429.759,260.367 429.670 C 260.238 429.656,260.133 429.904,260.133 430.222 C 260.133 430.976,260.270 430.952,261.260 430.030 C 261.715 429.606,261.991 429.021,261.875 428.730 C 261.734 428.378,261.653 428.434,261.632 428.900 M159.149 442.100 C 159.709 442.814,161.841 443.113,161.411 442.417 C 161.281 442.207,160.908 442.137,160.582 442.262 C 160.256 442.387,159.677 442.244,159.295 441.945 C 158.666 441.452,158.652 441.467,159.149 442.100 M163.600 443.881 C 163.600 444.343,164.735 445.409,164.958 445.157 C 165.034 445.071,164.760 444.654,164.348 444.230 C 163.937 443.807,163.600 443.649,163.600 443.881 M166.800 445.800 C 167.074 446.130,167.478 446.400,167.698 446.400 C 167.921 446.400,167.878 446.135,167.600 445.800 C 167.326 445.470,166.922 445.200,166.702 445.200 C 166.479 445.200,166.522 445.465,166.800 445.800 " stroke="none" fill="#56c4e4" fill-rule="evenodd"></path><path id="path2" d="M292.806 50.251 C 292.797 50.926,293.881 51.717,294.171 51.247 C 294.304 51.032,294.230 50.742,294.007 50.604 C 293.783 50.466,293.597 50.498,293.594 50.676 C 293.591 50.854,293.413 50.730,293.200 50.400 C 292.987 50.070,292.809 50.003,292.806 50.251 M297.800 175.227 C 297.140 175.650,296.309 175.997,295.954 175.998 C 295.599 175.999,294.825 176.380,294.235 176.844 C 293.645 177.308,292.406 178.093,291.481 178.587 C 287.561 180.685,286.734 181.157,286.203 181.597 C 285.618 182.083,283.628 183.198,280.134 184.997 C 278.998 185.582,277.755 186.407,277.372 186.831 C 276.989 187.254,276.368 187.600,275.992 187.600 C 274.430 187.600,271.221 190.808,271.710 191.881 C 271.958 192.425,279.324 200.036,288.080 208.796 C 296.836 217.555,304.000 224.883,304.000 225.080 C 304.000 225.278,304.613 225.661,305.361 225.932 C 308.044 226.901,307.999 226.393,308.005 256.308 C 308.008 270.989,308.124 283.422,308.262 283.939 C 308.583 285.135,310.298 284.893,312.071 283.402 C 312.725 282.851,313.440 282.400,313.659 282.400 C 313.877 282.400,314.841 281.860,315.800 281.200 C 316.759 280.540,317.723 280.000,317.941 280.000 C 318.160 280.000,318.847 279.577,319.469 279.061 C 320.091 278.544,321.064 278.009,321.631 277.870 C 322.198 277.732,323.153 277.165,323.752 276.610 C 324.351 276.054,325.040 275.600,325.283 275.600 C 325.526 275.600,326.305 275.157,327.015 274.616 C 327.725 274.074,329.047 273.335,329.953 272.972 C 330.859 272.610,331.600 272.177,331.600 272.010 C 331.600 271.843,332.455 271.320,333.500 270.847 C 334.545 270.374,336.390 269.362,337.600 268.599 C 338.810 267.836,340.558 266.844,341.483 266.395 C 342.409 265.945,343.281 265.393,343.420 265.167 C 343.560 264.942,344.602 264.305,345.737 263.752 C 348.933 262.196,350.929 261.082,352.283 260.100 C 352.965 259.605,353.707 259.200,353.931 259.200 C 354.155 259.200,354.849 258.771,355.473 258.246 C 356.096 257.721,357.235 256.991,358.003 256.624 C 359.981 255.680,361.803 254.641,363.519 253.481 C 364.334 252.931,365.450 252.347,366.000 252.185 C 366.550 252.023,367.509 251.465,368.131 250.945 C 368.753 250.425,369.504 250.000,369.800 250.000 C 370.096 250.000,370.876 249.548,371.534 248.995 C 372.191 248.442,373.344 247.732,374.096 247.418 C 374.848 247.103,375.687 246.577,375.959 246.249 C 376.232 245.920,376.974 245.537,377.609 245.398 C 378.243 245.259,379.244 244.766,379.832 244.303 C 380.420 243.840,381.464 243.161,382.151 242.793 C 385.116 241.203,387.452 239.782,388.140 239.149 C 388.546 238.774,389.307 238.360,389.829 238.228 C 390.352 238.097,391.439 237.542,392.245 236.995 C 393.052 236.448,393.866 236.000,394.054 236.000 C 394.579 236.000,396.200 232.304,396.070 231.400 C 395.919 230.347,394.288 227.200,393.893 227.200 C 393.723 227.200,392.823 226.714,391.892 226.120 C 389.794 224.780,387.507 223.503,385.344 222.463 C 384.433 222.025,383.567 221.471,383.420 221.232 C 383.272 220.993,382.368 220.441,381.410 220.004 C 380.452 219.568,379.428 218.984,379.134 218.706 C 378.840 218.427,377.790 217.794,376.800 217.298 C 375.810 216.801,374.100 215.855,373.000 215.194 C 371.900 214.533,370.370 213.708,369.600 213.359 C 368.830 213.011,367.750 212.313,367.200 211.808 C 366.650 211.303,365.776 210.762,365.259 210.605 C 364.741 210.448,363.681 209.888,362.903 209.360 C 362.125 208.832,361.355 208.400,361.193 208.400 C 360.786 208.400,356.450 205.769,355.621 205.019 C 355.251 204.684,354.330 204.203,353.574 203.950 C 352.818 203.696,351.823 203.149,351.363 202.734 C 350.497 201.953,348.249 200.658,345.307 199.247 C 344.376 198.800,343.116 198.095,342.507 197.680 C 339.773 195.816,338.126 194.859,337.200 194.595 C 336.650 194.438,335.750 193.897,335.200 193.392 C 334.650 192.887,333.570 192.180,332.800 191.819 C 332.030 191.459,330.320 190.556,329.000 189.813 C 327.680 189.070,326.150 188.227,325.600 187.939 C 325.050 187.651,323.898 186.917,323.040 186.308 C 322.182 185.699,321.251 185.200,320.971 185.200 C 320.691 185.200,319.953 184.791,319.331 184.291 C 318.709 183.791,317.570 183.064,316.800 182.675 C 316.030 182.285,314.500 181.436,313.400 180.787 C 312.300 180.138,310.365 179.063,309.100 178.398 C 307.835 177.733,306.800 177.040,306.800 176.858 C 306.800 176.677,306.077 176.290,305.194 175.998 C 304.311 175.707,303.389 175.228,303.145 174.934 C 302.485 174.139,299.220 174.318,297.800 175.227 M81.600 187.241 C 80.170 188.095,78.280 189.166,77.400 189.620 C 75.749 190.473,74.028 191.472,71.600 192.989 C 67.622 195.473,65.221 196.800,64.702 196.800 C 64.384 196.800,63.601 197.250,62.962 197.800 C 62.323 198.349,61.597 198.799,61.349 198.800 C 61.101 198.800,60.687 199.054,60.429 199.366 C 60.170 199.677,59.113 200.329,58.080 200.814 C 57.046 201.300,55.709 202.110,55.110 202.615 C 54.510 203.119,53.475 203.652,52.810 203.798 C 52.144 203.944,51.600 204.213,51.600 204.396 C 51.600 204.578,50.205 205.501,48.500 206.447 C 46.795 207.392,44.860 208.479,44.200 208.861 C 43.540 209.244,42.381 209.853,41.625 210.215 C 40.869 210.577,39.682 211.307,38.988 211.837 C 38.293 212.366,37.594 212.800,37.434 212.800 C 37.275 212.800,36.392 213.315,35.472 213.945 C 34.552 214.575,33.350 215.226,32.800 215.391 C 32.250 215.557,31.440 216.010,31.000 216.399 C 30.560 216.788,29.660 217.401,29.000 217.762 C 28.340 218.122,26.720 219.042,25.400 219.807 C 24.080 220.571,22.100 221.651,21.000 222.207 C 19.900 222.763,18.190 223.750,17.200 224.402 C 16.210 225.053,14.770 225.899,14.000 226.282 C 13.230 226.665,11.880 227.441,11.000 228.006 C 10.120 228.572,8.922 229.240,8.337 229.492 C 5.873 230.552,6.334 232.631,9.376 234.170 C 10.599 234.789,11.600 235.418,11.600 235.567 C 11.600 235.717,12.230 236.067,13.000 236.346 C 13.770 236.624,14.400 236.998,14.400 237.177 C 14.400 237.356,14.985 237.740,15.700 238.029 C 16.415 238.318,17.875 239.150,18.945 239.878 C 20.015 240.605,21.118 241.200,21.396 241.200 C 21.674 241.200,22.147 241.495,22.445 241.855 C 22.744 242.215,23.711 242.844,24.594 243.254 C 26.185 243.992,28.547 245.363,31.218 247.099 C 31.978 247.593,32.884 247.998,33.230 247.999 C 33.577 247.999,34.269 248.435,34.768 248.966 C 35.267 249.498,36.142 250.049,36.711 250.192 C 37.280 250.335,38.267 250.890,38.904 251.426 C 39.540 251.962,40.244 252.400,40.467 252.400 C 40.690 252.400,42.640 253.480,44.800 254.800 C 46.960 256.120,48.969 257.203,49.264 257.207 C 49.559 257.211,50.224 257.661,50.742 258.207 C 51.260 258.753,51.890 259.202,52.142 259.205 C 52.394 259.207,54.040 260.108,55.800 261.207 C 57.560 262.306,59.720 263.571,60.600 264.018 C 61.480 264.465,63.370 265.539,64.800 266.405 C 66.230 267.271,68.120 268.349,69.000 268.801 C 69.880 269.253,71.860 270.420,73.400 271.395 C 74.940 272.369,76.493 273.174,76.851 273.183 C 77.209 273.192,77.749 273.499,78.051 273.864 C 78.353 274.229,79.482 274.936,80.559 275.436 C 81.637 275.936,82.640 276.541,82.788 276.781 C 83.081 277.255,85.900 278.402,90.000 279.715 C 92.927 280.652,107.017 281.206,108.594 280.446 C 109.037 280.232,110.346 279.846,111.501 279.589 C 112.657 279.331,113.694 278.971,113.806 278.790 C 113.918 278.609,114.886 278.170,115.958 277.814 C 117.029 277.458,118.225 276.814,118.615 276.383 C 119.005 275.953,119.594 275.600,119.924 275.600 C 120.254 275.600,121.093 275.166,121.788 274.637 C 122.482 274.107,123.669 273.375,124.425 273.010 C 126.677 271.924,129.200 270.499,129.875 269.931 C 130.223 269.639,131.247 269.040,132.152 268.600 C 133.057 268.160,134.009 267.365,134.269 266.832 C 134.529 266.300,135.024 265.706,135.371 265.512 C 136.817 264.703,135.796 264.400,131.620 264.400 C 122.113 264.400,122.813 264.861,104.470 246.525 C 95.569 237.627,88.835 231.200,88.414 231.200 C 85.143 231.200,84.814 228.855,84.806 205.524 C 84.803 194.812,84.665 185.967,84.500 185.868 C 84.335 185.769,83.030 186.387,81.600 187.241 " stroke="none" fill="#4dadcc" fill-rule="evenodd"></path><path id="path3" d="M193.699 0.734 C 193.853 1.325,193.706 1.433,192.943 1.287 C 191.999 1.107,190.656 1.843,190.978 2.364 C 191.390 3.031,190.432 3.561,188.649 3.654 C 186.795 3.750,185.543 4.714,186.749 5.116 C 187.665 5.422,185.895 6.314,184.735 6.131 C 182.990 5.856,181.759 6.671,182.568 7.565 C 183.104 8.157,183.112 8.267,182.619 8.267 C 182.298 8.267,182.128 8.117,182.241 7.933 C 182.586 7.375,181.982 7.561,181.329 8.214 C 180.990 8.553,180.390 8.724,179.986 8.596 C 179.415 8.414,179.229 8.607,179.128 9.482 C 179.017 10.455,178.832 10.597,177.702 10.578 C 176.773 10.562,176.337 10.769,176.166 11.306 C 175.937 12.029,175.908 12.030,175.352 11.328 C 174.800 10.631,174.778 10.634,174.834 11.400 C 174.950 12.998,174.827 13.116,173.213 12.959 C 171.867 12.828,171.665 12.905,171.881 13.468 C 172.022 13.835,171.970 14.028,171.764 13.901 C 171.223 13.567,169.871 14.668,170.190 15.183 C 170.338 15.423,170.311 15.586,170.130 15.544 C 169.434 15.385,167.617 16.103,167.832 16.453 C 167.957 16.655,167.911 16.780,167.730 16.731 C 167.109 16.563,165.588 17.257,165.806 17.609 C 165.925 17.803,165.389 17.899,164.615 17.824 C 163.841 17.749,163.304 17.844,163.422 18.036 C 163.742 18.553,162.823 20.062,162.362 19.777 C 162.144 19.642,161.703 19.749,161.382 20.015 C 161.062 20.280,160.800 20.334,160.800 20.134 C 160.800 19.934,160.440 19.743,160.000 19.710 C 159.543 19.676,159.200 19.896,159.200 20.225 C 159.200 20.541,158.998 20.800,158.751 20.800 C 158.430 20.800,158.424 20.947,158.731 21.316 C 159.057 21.709,158.949 21.858,158.280 21.938 C 156.931 22.098,155.821 22.288,155.600 22.395 C 155.490 22.449,155.133 22.517,154.807 22.546 C 154.480 22.576,154.168 22.960,154.114 23.400 C 154.059 23.840,154.116 23.975,154.240 23.700 C 154.365 23.425,154.677 23.206,154.933 23.213 C 155.190 23.221,154.976 23.580,154.458 24.011 C 153.940 24.443,153.348 24.691,153.141 24.563 C 152.934 24.436,152.475 24.572,152.121 24.866 C 151.767 25.160,151.415 25.355,151.339 25.300 C 150.896 24.980,150.330 25.315,149.967 26.112 C 149.672 26.761,149.241 27.007,148.476 26.966 C 147.041 26.888,146.663 27.152,147.230 27.836 C 147.588 28.267,147.587 28.400,147.225 28.400 C 146.965 28.400,146.864 28.580,147.000 28.800 C 147.149 29.042,146.604 29.200,145.624 29.200 C 144.595 29.200,143.998 29.383,143.994 29.700 C 143.990 30.033,143.858 30.000,143.600 29.600 C 143.318 29.164,143.211 29.143,143.206 29.524 C 143.203 29.812,143.020 29.936,142.801 29.800 C 142.570 29.658,142.443 29.944,142.501 30.477 C 142.588 31.289,142.439 31.391,141.267 31.326 C 140.255 31.269,139.987 31.390,140.155 31.826 C 140.276 32.142,140.216 32.400,140.021 32.400 C 139.826 32.400,139.596 32.188,139.509 31.928 C 139.272 31.215,137.996 31.869,138.028 32.687 C 138.053 33.324,138.089 33.318,138.359 32.627 C 138.553 32.132,138.761 32.014,138.938 32.299 C 139.089 32.544,139.027 32.860,138.800 33.000 C 138.573 33.140,138.470 33.389,138.571 33.553 C 138.672 33.717,138.045 33.795,137.178 33.726 C 136.310 33.658,135.645 33.736,135.700 33.901 C 135.935 34.605,133.961 35.956,132.526 36.074 C 131.196 36.184,130.984 36.341,130.873 37.300 C 130.741 38.453,130.568 38.514,127.600 38.452 C 126.830 38.435,126.425 38.522,126.700 38.644 C 126.975 38.767,127.200 39.042,127.200 39.257 C 127.200 39.472,127.008 39.528,126.773 39.383 C 126.538 39.238,126.247 39.497,126.126 39.960 C 125.928 40.718,125.259 41.022,124.226 40.823 C 123.344 40.653,122.000 41.264,122.000 41.836 C 122.000 42.707,120.718 43.954,120.499 43.296 C 120.248 42.544,119.719 42.702,119.484 43.601 C 119.344 44.137,119.427 44.310,119.737 44.124 C 119.992 43.971,119.953 44.151,119.651 44.523 C 119.349 44.895,118.704 45.200,118.218 45.200 C 117.731 45.200,117.201 45.333,117.038 45.495 C 116.876 45.657,116.531 45.810,116.272 45.834 C 116.012 45.858,115.485 45.906,115.100 45.939 C 114.687 45.975,114.400 46.328,114.400 46.800 C 114.400 47.559,114.016 47.774,112.909 47.632 C 112.640 47.597,111.995 47.847,111.477 48.186 C 110.960 48.525,110.387 48.667,110.204 48.501 C 110.022 48.336,109.981 48.502,110.112 48.871 C 110.435 49.772,109.642 50.327,108.309 50.133 C 107.511 50.018,106.886 50.293,105.976 51.162 C 105.293 51.815,104.478 52.251,104.166 52.131 C 103.775 51.981,103.520 52.302,103.349 53.157 C 103.096 54.419,102.701 54.594,100.500 54.416 C 100.005 54.376,99.600 54.555,99.600 54.814 C 99.600 55.073,99.326 55.180,98.991 55.052 C 98.499 54.863,98.460 54.966,98.792 55.585 C 99.333 56.595,98.786 56.914,96.515 56.914 C 95.537 56.914,94.941 57.040,95.190 57.194 C 95.476 57.370,95.118 57.872,94.219 58.559 C 93.436 59.156,92.644 59.551,92.459 59.436 C 92.274 59.322,91.611 59.762,90.986 60.414 C 90.362 61.066,89.449 61.600,88.958 61.600 C 88.468 61.600,87.976 61.825,87.865 62.100 C 87.704 62.500,87.657 62.500,87.632 62.100 C 87.614 61.825,87.401 61.600,87.157 61.600 C 86.914 61.600,86.818 61.870,86.945 62.200 C 87.408 63.408,86.833 63.853,84.986 63.714 C 83.887 63.631,83.200 63.746,83.200 64.013 C 83.200 64.252,83.020 64.336,82.800 64.200 C 82.573 64.060,82.400 64.396,82.400 64.976 C 82.400 65.620,82.177 66.000,81.800 66.000 C 81.470 66.000,81.197 66.225,81.194 66.500 C 81.190 66.810,81.076 66.848,80.894 66.600 C 80.522 66.094,79.600 65.895,79.600 66.320 C 79.600 66.496,79.825 66.896,80.100 67.209 C 80.375 67.523,80.236 67.478,79.791 67.110 C 78.873 66.351,78.233 66.600,77.836 67.870 C 77.633 68.523,77.325 68.697,76.609 68.567 C 75.812 68.423,75.633 68.576,75.527 69.497 C 75.416 70.459,75.205 70.616,73.874 70.726 C 72.477 70.841,70.800 71.933,70.800 72.727 C 70.800 72.907,70.170 73.005,69.400 72.944 C 68.630 72.883,67.977 73.006,67.950 73.217 C 67.847 74.006,67.780 74.213,67.464 74.711 C 67.285 74.991,66.928 75.187,66.670 75.145 C 65.693 74.988,64.009 75.690,64.280 76.143 C 64.430 76.394,64.249 76.353,63.877 76.051 C 63.111 75.430,62.206 75.920,61.809 77.171 C 61.658 77.646,61.221 77.849,60.448 77.803 C 59.428 77.742,59.319 77.854,59.406 78.868 C 59.498 79.955,59.432 80.000,57.727 80.000 C 56.539 80.000,56.043 80.145,56.225 80.440 C 56.405 80.731,56.193 80.718,55.600 80.400 C 55.007 80.082,54.795 80.069,54.975 80.360 C 55.125 80.602,55.049 80.800,54.806 80.800 C 54.563 80.800,54.418 81.115,54.482 81.500 C 54.579 82.077,54.214 82.235,52.400 82.400 C 50.496 82.573,50.183 82.721,50.072 83.500 C 49.990 84.078,49.668 84.400,49.172 84.400 C 48.747 84.400,48.400 84.580,48.400 84.800 C 48.400 85.020,47.969 85.200,47.443 85.200 C 46.538 85.200,45.786 86.130,46.178 86.764 C 46.277 86.924,45.834 86.978,45.194 86.884 C 43.870 86.690,42.590 87.675,42.949 88.610 C 43.175 89.201,42.811 89.354,41.500 89.221 C 41.115 89.182,40.800 89.341,40.800 89.575 C 40.800 89.809,40.609 90.000,40.376 90.000 C 40.143 90.000,40.064 89.820,40.200 89.600 C 40.336 89.380,40.257 89.200,40.024 89.200 C 39.639 89.200,39.437 89.745,39.548 90.486 C 39.571 90.643,39.278 90.654,38.895 90.511 C 38.265 90.275,38.256 90.321,38.800 91.002 C 39.130 91.415,39.187 91.626,38.928 91.470 C 38.668 91.314,38.353 91.353,38.227 91.556 C 38.102 91.759,37.621 91.826,37.159 91.705 C 36.666 91.576,36.172 91.716,35.965 92.043 C 35.712 92.442,35.611 92.458,35.606 92.100 C 35.603 91.825,35.426 91.600,35.213 91.600 C 34.999 91.600,34.943 91.915,35.087 92.300 C 35.325 92.935,35.280 92.944,34.600 92.400 C 33.921 91.857,33.875 91.865,34.108 92.487 C 34.411 93.298,33.877 93.706,32.440 93.760 C 31.545 93.795,31.409 93.967,31.464 95.000 C 31.499 95.660,31.439 95.975,31.331 95.700 C 31.058 95.009,30.400 95.071,30.400 95.787 C 30.400 96.171,30.169 96.286,29.734 96.119 C 29.235 95.928,29.154 96.006,29.411 96.432 C 29.703 96.917,29.654 96.920,29.077 96.451 C 28.487 95.973,28.396 95.998,28.372 96.651 C 28.346 97.348,28.320 97.344,28.000 96.600 C 27.811 96.160,27.644 96.036,27.628 96.324 C 27.613 96.612,27.420 96.736,27.200 96.600 C 26.980 96.464,26.800 96.543,26.800 96.776 C 26.800 97.009,27.025 97.206,27.300 97.213 C 27.575 97.221,27.396 97.564,26.901 97.976 C 26.347 98.439,25.672 98.639,25.139 98.500 C 24.477 98.327,24.350 98.405,24.596 98.837 C 24.856 99.293,24.815 99.305,24.379 98.900 C 23.611 98.188,22.662 98.264,22.950 99.015 C 23.087 99.371,22.926 99.730,22.570 99.867 C 22.231 99.997,22.044 100.338,22.154 100.624 C 22.291 100.981,22.078 101.092,21.479 100.977 C 20.250 100.740,19.130 101.160,19.471 101.729 C 19.672 102.064,19.579 102.058,19.147 101.710 C 18.475 101.165,17.600 101.714,17.600 102.680 C 17.600 103.139,17.398 103.240,16.586 103.186 C 16.248 103.163,15.379 104.137,15.116 104.832 C 14.950 105.271,14.406 105.450,13.339 105.416 C 12.336 105.384,11.556 105.616,11.100 106.083 C 10.715 106.477,10.535 106.806,10.700 106.813 C 10.865 106.820,10.677 107.071,10.281 107.370 C 9.886 107.670,9.211 107.823,8.781 107.711 C 8.289 107.582,7.998 107.709,7.994 108.053 C 7.989 108.496,7.919 108.491,7.624 108.026 C 7.217 107.381,5.994 108.078,6.006 108.949 C 6.009 109.197,6.187 109.130,6.400 108.800 C 6.613 108.470,6.791 108.389,6.794 108.620 C 6.805 109.367,5.867 110.000,4.751 110.000 C 4.074 110.000,3.207 110.454,2.462 111.200 C 1.802 111.860,0.978 112.400,0.631 112.400 C 0.109 112.400,0.000 112.953,0.000 115.600 C 0.000 118.464,0.079 118.800,0.751 118.800 C 1.164 118.800,1.710 119.051,1.964 119.357 C 2.219 119.663,3.006 120.146,3.713 120.430 C 4.421 120.714,5.509 121.363,6.131 121.873 C 6.753 122.383,7.580 122.800,7.969 122.800 C 8.358 122.800,8.983 123.139,9.358 123.553 C 9.732 123.967,10.840 124.612,11.820 124.986 C 12.799 125.360,13.600 125.811,13.600 125.989 C 13.600 126.167,14.427 126.701,15.438 127.176 C 16.449 127.651,17.644 128.382,18.092 128.800 C 18.541 129.218,19.424 129.673,20.054 129.812 C 20.684 129.950,21.200 130.209,21.200 130.388 C 21.200 130.566,22.055 131.109,23.100 131.595 C 24.145 132.081,25.360 132.799,25.800 133.190 C 26.240 133.581,27.275 134.118,28.100 134.382 C 28.925 134.646,29.600 135.037,29.600 135.251 C 29.600 135.464,30.276 135.945,31.102 136.320 C 31.928 136.694,33.323 137.449,34.202 137.997 C 36.390 139.363,37.946 140.236,39.597 141.024 C 40.365 141.391,41.504 142.121,42.127 142.646 C 42.751 143.171,43.580 143.600,43.969 143.600 C 44.358 143.600,44.991 143.948,45.377 144.374 C 45.762 144.800,46.825 145.526,47.739 145.987 C 48.652 146.449,50.480 147.446,51.800 148.202 C 53.120 148.959,54.740 149.841,55.400 150.161 C 56.060 150.482,57.220 151.207,57.978 151.772 C 58.735 152.337,59.577 152.800,59.847 152.800 C 60.117 152.800,60.849 153.229,61.473 153.754 C 62.096 154.279,63.235 155.011,64.003 155.382 C 66.296 156.487,68.567 157.749,69.821 158.613 C 70.469 159.060,71.630 159.750,72.400 160.146 C 74.708 161.332,76.931 162.588,78.128 163.381 C 78.749 163.792,79.768 164.415,80.394 164.764 C 81.019 165.114,82.243 165.796,83.112 166.281 L 84.693 167.162 84.962 163.849 C 85.110 162.028,85.207 154.860,85.178 147.922 C 85.118 133.849,85.234 133.120,87.601 132.600 C 88.334 132.439,89.321 131.705,90.089 130.749 C 90.789 129.878,91.925 128.817,92.613 128.392 C 93.301 127.967,94.202 126.991,94.615 126.223 C 95.029 125.456,95.868 124.620,96.480 124.367 C 97.092 124.113,97.969 123.297,98.429 122.553 C 98.889 121.809,100.105 120.525,101.133 119.700 C 102.160 118.875,103.072 118.030,103.159 117.822 C 103.247 117.614,105.047 115.767,107.159 113.717 C 109.272 111.667,111.130 109.857,111.288 109.695 C 111.446 109.533,113.696 107.220,116.288 104.556 C 118.880 101.891,121.393 99.506,121.874 99.256 C 123.458 98.429,268.897 98.623,270.503 99.453 C 271.198 99.813,272.674 101.079,273.783 102.268 C 275.342 103.939,296.415 125.035,301.552 130.067 C 302.076 130.580,302.827 131.519,303.221 132.153 C 303.614 132.788,304.611 133.688,305.435 134.153 C 307.880 135.534,307.935 135.948,307.970 153.138 C 308.005 171.211,308.256 170.159,303.564 171.611 C 301.356 172.295,300.151 172.437,298.068 172.263 C 296.069 172.095,295.751 172.129,296.800 172.396 C 301.429 173.578,305.301 172.566,308.349 169.379 C 309.491 168.185,311.184 166.832,312.112 166.372 C 313.041 165.912,314.700 165.017,315.800 164.384 C 316.900 163.751,318.728 162.785,319.863 162.238 C 320.998 161.690,322.045 161.050,322.191 160.815 C 322.336 160.580,323.111 160.114,323.913 159.779 C 324.715 159.444,325.710 158.861,326.125 158.485 C 326.867 157.812,328.625 156.822,331.806 155.285 C 332.689 154.858,333.656 154.215,333.955 153.855 C 334.253 153.495,334.726 153.200,335.004 153.200 C 335.282 153.200,336.426 152.570,337.545 151.800 C 338.665 151.030,339.855 150.400,340.190 150.400 C 340.526 150.400,341.171 150.029,341.625 149.575 C 342.079 149.121,343.204 148.394,344.125 147.959 C 346.468 146.853,349.119 145.321,350.304 144.389 C 350.856 143.955,351.540 143.600,351.823 143.600 C 352.107 143.600,352.849 143.171,353.473 142.646 C 354.096 142.121,355.235 141.393,356.003 141.028 C 356.772 140.663,358.480 139.754,359.800 139.008 C 361.120 138.262,362.828 137.349,363.597 136.980 C 364.365 136.611,365.504 135.879,366.127 135.354 C 366.751 134.829,367.504 134.400,367.800 134.400 C 368.096 134.400,368.869 133.954,369.518 133.408 C 370.166 132.862,371.530 132.059,372.548 131.622 C 373.567 131.186,374.400 130.678,374.400 130.495 C 374.400 130.311,375.050 129.926,375.844 129.639 C 376.638 129.352,377.923 128.685,378.699 128.158 C 379.476 127.631,380.288 127.200,380.503 127.200 C 380.718 127.200,381.509 126.660,382.261 126.000 C 383.013 125.340,383.950 124.800,384.344 124.800 C 384.738 124.800,385.458 124.377,385.945 123.859 C 386.431 123.342,387.542 122.704,388.414 122.443 C 389.286 122.182,390.000 121.815,390.000 121.627 C 390.000 121.440,390.705 121.005,391.566 120.660 C 392.427 120.316,393.248 119.846,393.390 119.617 C 393.746 119.040,395.084 119.094,395.476 119.700 C 395.654 119.975,395.890 144.359,396.000 173.887 L 396.200 227.575 397.600 228.771 C 398.370 229.429,399.225 229.975,399.500 229.984 C 399.898 229.997,400.000 217.982,400.000 171.200 C 400.000 113.350,399.988 112.400,399.227 112.400 C 398.802 112.400,398.343 112.049,398.206 111.620 C 397.974 110.887,396.963 110.340,395.600 110.209 C 395.270 110.177,394.640 109.955,394.200 109.715 C 393.760 109.475,393.220 109.261,393.000 109.239 C 392.780 109.218,392.578 109.020,392.550 108.800 C 392.523 108.580,392.478 108.200,392.450 107.955 C 392.418 107.670,391.913 107.602,391.035 107.767 C 389.809 107.997,389.610 107.902,389.081 106.842 C 388.546 105.769,388.552 105.679,389.146 105.868 C 389.710 106.047,389.718 106.016,389.200 105.644 C 388.382 105.055,387.201 105.088,387.194 105.700 C 387.189 106.094,387.121 106.095,386.875 105.707 C 386.703 105.436,386.165 105.291,385.681 105.384 C 384.965 105.522,384.800 105.369,384.800 104.564 C 384.800 103.553,384.669 103.459,382.621 103.006 C 381.722 102.807,381.579 102.660,382.018 102.389 C 382.933 101.823,381.894 101.095,380.086 101.034 C 378.577 100.984,376.718 99.827,377.647 99.518 C 377.907 99.431,377.793 99.131,377.367 98.785 C 376.933 98.433,376.766 98.399,376.947 98.700 C 377.112 98.975,377.057 99.200,376.824 99.200 C 376.591 99.200,376.400 99.006,376.400 98.769 C 376.400 98.514,375.788 98.391,374.904 98.469 C 373.634 98.580,373.407 98.479,373.398 97.800 C 373.378 96.284,371.212 95.007,371.194 96.500 C 371.189 96.857,371.087 96.841,370.834 96.442 C 370.634 96.125,370.194 95.993,369.820 96.137 C 369.432 96.286,369.260 96.227,369.402 95.996 C 369.537 95.779,369.382 95.224,369.060 94.764 C 368.509 93.978,368.461 93.972,368.283 94.663 C 368.128 95.263,368.084 95.233,368.046 94.500 C 368.000 93.592,367.200 93.192,367.200 94.076 C 367.200 94.339,366.945 94.204,366.632 93.776 C 366.320 93.349,365.840 93.000,365.566 93.000 C 365.291 93.000,364.992 92.775,364.900 92.500 C 364.789 92.167,364.967 92.089,365.432 92.268 C 365.921 92.455,366.041 92.390,365.831 92.050 C 365.666 91.783,364.871 91.597,364.065 91.636 C 361.826 91.746,361.599 91.670,361.887 90.900 C 362.125 90.266,362.080 90.256,361.409 90.800 C 360.715 91.363,360.699 91.344,361.149 90.500 C 361.412 90.005,361.577 89.581,361.514 89.557 C 361.384 89.508,359.411 89.329,358.150 89.252 C 357.536 89.214,357.231 88.854,357.050 87.951 C 356.827 86.837,356.727 86.761,356.123 87.251 C 355.664 87.624,355.543 87.640,355.747 87.300 C 355.938 86.981,355.810 86.800,355.393 86.800 C 355.033 86.800,354.185 86.246,353.508 85.569 C 352.726 84.788,352.007 84.409,351.537 84.532 C 351.130 84.639,350.393 84.369,349.899 83.932 C 349.404 83.496,349.248 83.268,349.552 83.425 C 349.919 83.615,350.042 83.525,349.919 83.156 C 349.817 82.850,349.412 82.538,349.019 82.462 C 348.510 82.363,348.398 82.478,348.629 82.862 C 348.885 83.286,348.832 83.302,348.377 82.935 C 348.060 82.680,347.260 82.410,346.600 82.335 C 345.627 82.226,345.418 82.030,345.495 81.300 C 345.548 80.805,345.458 80.375,345.295 80.346 C 344.973 80.286,342.634 80.098,341.471 80.038 C 340.919 80.009,340.774 79.735,340.871 78.900 C 340.985 77.925,340.868 77.798,339.834 77.784 C 339.037 77.774,338.546 77.498,338.285 76.913 C 337.849 75.936,335.905 74.997,335.020 75.337 C 334.693 75.462,334.312 75.381,334.172 75.155 C 334.033 74.930,333.622 74.848,333.260 74.974 C 332.775 75.141,332.807 75.042,333.379 74.599 C 333.983 74.132,334.050 73.890,333.679 73.519 C 333.307 73.147,333.197 73.170,333.188 73.620 C 333.179 74.052,333.072 74.022,332.768 73.500 C 332.544 73.115,332.179 72.800,331.957 72.800 C 331.734 72.800,331.656 72.968,331.783 73.172 C 331.909 73.377,331.830 73.658,331.607 73.796 C 331.383 73.934,331.200 73.746,331.200 73.377 C 331.200 72.904,330.965 72.768,330.400 72.916 C 329.960 73.031,329.600 72.962,329.600 72.763 C 329.600 72.563,329.352 72.400,329.049 72.400 C 328.746 72.400,328.260 72.085,327.968 71.700 C 327.518 71.104,327.522 71.075,327.999 71.500 C 328.705 72.130,329.718 72.153,329.512 71.535 C 329.344 71.033,328.707 70.883,326.161 70.745 C 324.604 70.661,324.528 70.599,324.657 69.496 C 324.786 68.387,324.732 68.344,323.427 68.520 C 322.377 68.661,322.111 68.575,322.276 68.147 C 322.565 67.394,321.611 66.310,320.900 66.583 C 320.585 66.704,320.119 66.670,319.864 66.507 C 319.407 66.217,319.190 66.149,318.400 66.050 C 318.180 66.023,318.000 65.758,318.000 65.462 C 318.000 64.520,316.645 63.655,315.199 63.673 C 313.076 63.700,312.733 63.632,312.978 63.236 C 313.445 62.480,312.715 61.656,311.607 61.687 C 310.323 61.724,308.453 60.442,308.701 59.696 C 308.918 59.046,308.127 59.050,307.865 59.700 C 307.704 60.100,307.657 60.100,307.632 59.700 C 307.614 59.425,307.330 59.200,307.000 59.200 C 306.670 59.200,306.400 58.846,306.400 58.414 C 306.400 57.346,305.039 56.644,304.024 57.187 C 303.536 57.449,303.161 57.460,303.011 57.219 C 302.881 57.008,302.510 56.936,302.187 57.060 C 301.821 57.201,301.600 57.044,301.600 56.643 C 301.600 56.289,301.398 56.000,301.151 56.000 C 300.824 56.000,300.827 55.850,301.161 55.447 C 301.754 54.733,300.549 54.178,299.785 54.813 C 299.421 55.115,299.194 55.113,299.005 54.809 C 298.859 54.572,298.528 54.405,298.270 54.437 C 297.135 54.577,296.726 54.369,296.956 53.770 C 297.089 53.424,296.941 52.884,296.627 52.570 C 295.973 51.916,295.432 51.805,295.800 52.400 C 296.317 53.237,295.505 52.748,294.304 51.500 C 293.616 50.785,293.288 50.515,293.576 50.900 C 293.895 51.328,293.934 51.600,293.676 51.600 C 293.444 51.600,293.140 51.240,293.000 50.800 C 292.801 50.174,292.395 50.000,291.130 50.000 C 289.858 50.000,289.563 49.872,289.745 49.400 C 289.871 49.070,289.756 48.797,289.487 48.794 C 289.152 48.790,289.173 48.678,289.553 48.438 C 290.382 47.912,288.650 47.464,286.992 47.775 C 285.710 48.016,285.647 47.970,285.526 46.713 C 285.404 45.443,285.339 45.399,283.555 45.364 C 281.346 45.321,280.255 44.958,280.609 44.385 C 280.972 43.798,280.054 42.800,279.151 42.800 C 278.738 42.800,278.400 42.620,278.400 42.400 C 278.400 42.180,278.209 42.000,277.976 42.000 C 277.743 42.000,277.681 42.225,277.838 42.500 C 277.995 42.775,277.567 42.482,276.886 41.848 C 276.154 41.167,275.398 40.792,275.037 40.931 C 274.450 41.156,273.876 40.643,273.771 39.800 C 273.744 39.580,273.694 39.153,273.661 38.851 C 273.616 38.451,273.461 38.417,273.087 38.728 C 272.761 38.998,272.358 39.018,271.987 38.783 C 271.664 38.579,270.905 38.409,270.300 38.406 C 269.350 38.401,269.200 38.239,269.200 37.219 C 269.200 36.143,269.095 36.051,268.015 36.188 C 267.264 36.283,266.469 36.055,265.849 35.567 C 265.121 34.994,264.811 34.925,264.646 35.298 C 264.495 35.638,264.435 35.606,264.459 35.200 C 264.544 33.776,264.385 33.511,263.576 33.722 C 263.072 33.854,262.666 33.717,262.534 33.371 C 262.414 33.060,262.124 32.923,261.890 33.068 C 261.625 33.232,261.558 33.085,261.715 32.678 C 261.852 32.319,261.807 31.928,261.613 31.808 C 261.419 31.688,261.178 31.907,261.077 32.295 C 260.905 32.953,260.890 32.951,260.846 32.276 C 260.821 31.878,260.620 31.664,260.400 31.800 C 260.180 31.936,260.000 31.872,260.000 31.659 C 260.000 31.445,259.577 31.317,259.060 31.374 C 258.543 31.430,257.778 31.210,257.360 30.885 C 256.707 30.376,256.698 30.326,257.300 30.534 C 257.685 30.666,257.997 30.646,257.994 30.487 C 257.980 29.845,257.354 29.321,256.600 29.321 C 256.160 29.321,255.668 29.519,255.506 29.761 C 255.303 30.064,255.210 30.045,255.206 29.700 C 255.203 29.425,254.750 29.200,254.200 29.200 C 253.604 29.200,253.200 28.971,253.200 28.633 C 253.200 28.322,252.975 27.976,252.700 27.865 C 252.315 27.710,252.321 27.656,252.724 27.632 C 253.645 27.576,252.790 26.800,251.807 26.800 C 251.287 26.800,250.322 26.260,249.662 25.600 C 248.783 24.721,248.085 24.400,247.054 24.400 C 246.280 24.400,245.519 24.192,245.362 23.938 C 245.185 23.652,245.252 23.585,245.538 23.762 C 245.833 23.944,246.000 23.733,246.000 23.177 C 246.000 22.464,245.819 22.341,245.000 22.498 C 244.420 22.609,243.997 22.502,243.994 22.245 C 243.991 22.000,243.813 22.070,243.600 22.400 C 243.297 22.868,243.211 22.880,243.206 22.453 C 243.202 22.099,242.910 21.983,242.376 22.122 C 241.548 22.339,241.245 21.980,241.030 20.531 C 240.940 19.927,240.545 19.799,238.760 19.795 C 236.961 19.791,236.609 19.675,236.655 19.099 C 236.685 18.719,236.562 18.500,236.382 18.611 C 236.203 18.722,235.951 18.644,235.823 18.437 C 235.695 18.230,235.907 17.963,236.295 17.845 C 236.683 17.726,236.497 17.689,235.883 17.762 C 234.990 17.869,234.647 17.665,234.173 16.748 C 233.847 16.116,233.404 15.600,233.190 15.600 C 232.611 15.600,232.714 16.040,233.500 16.927 C 234.179 17.693,234.173 17.702,233.300 17.244 C 232.805 16.984,232.400 16.442,232.400 16.038 C 232.400 15.605,232.113 15.305,231.700 15.307 C 230.078 15.313,229.567 15.177,229.800 14.800 C 229.936 14.580,229.812 14.397,229.524 14.394 C 229.105 14.389,229.102 14.323,229.508 14.066 C 230.266 13.584,228.485 12.800,226.935 12.933 C 226.240 12.992,225.340 12.783,224.935 12.467 C 224.277 11.952,224.273 11.917,224.900 12.134 C 225.358 12.292,225.600 12.172,225.600 11.787 C 225.600 11.464,225.375 11.245,225.100 11.300 C 224.825 11.355,224.645 11.175,224.700 10.900 C 224.755 10.625,224.536 10.400,224.213 10.400 C 223.834 10.400,223.705 10.649,223.850 11.100 C 224.021 11.630,223.982 11.669,223.689 11.260 C 223.477 10.963,222.695 10.594,221.952 10.440 C 220.839 10.209,220.623 9.999,220.729 9.255 C 220.811 8.683,220.664 8.378,220.329 8.423 C 219.002 8.603,218.400 8.353,218.400 7.624 C 218.400 7.197,218.231 6.743,218.025 6.615 C 217.812 6.484,217.726 6.862,217.827 7.492 C 217.990 8.513,217.966 8.537,217.513 7.800 C 217.242 7.360,217.016 6.835,217.010 6.633 C 217.005 6.432,216.750 6.183,216.444 6.081 C 216.074 5.958,215.994 6.067,216.206 6.410 C 216.435 6.780,216.367 6.826,215.962 6.572 C 215.653 6.379,215.220 6.199,215.000 6.171 C 214.780 6.144,214.364 6.094,214.076 6.061 C 213.788 6.027,213.662 5.824,213.795 5.608 C 214.438 4.567,213.204 3.622,211.378 3.759 C 209.535 3.897,208.628 3.224,208.895 1.916 C 208.953 1.632,208.640 1.374,208.200 1.343 C 207.760 1.311,207.175 1.266,206.900 1.243 C 206.625 1.219,206.400 0.930,206.400 0.600 C 206.400 0.091,205.417 0.000,199.953 0.000 C 193.897 0.000,193.518 0.044,193.699 0.734 M166.900 15.688 C 166.405 15.927,166.000 16.285,166.000 16.485 C 166.000 16.684,166.181 16.736,166.401 16.599 C 166.622 16.463,167.297 16.093,167.901 15.778 C 169.168 15.117,168.254 15.035,166.900 15.688 M321.757 67.433 C 321.907 67.823,321.818 68.006,321.525 67.908 C 320.927 67.709,320.598 66.800,321.124 66.800 C 321.339 66.800,321.624 67.085,321.757 67.433 M336.837 76.237 C 336.927 76.151,337.223 76.323,337.496 76.619 C 337.808 76.958,337.845 77.248,337.596 77.402 C 337.378 77.537,337.200 77.469,337.200 77.251 C 337.200 77.032,336.840 76.740,336.400 76.600 C 335.960 76.460,335.600 76.156,335.600 75.924 C 335.600 75.640,335.775 75.647,336.137 75.948 C 336.432 76.193,336.747 76.323,336.837 76.237 M228.500 171.900 C 240.545 171.959,260.255 171.959,272.300 171.900 C 284.345 171.841,274.490 171.793,250.400 171.793 C 226.310 171.793,216.455 171.841,228.500 171.900 M201.058 173.477 C 201.796 175.244,201.831 188.394,201.100 189.172 C 200.690 189.608,200.783 189.660,201.622 189.463 C 202.185 189.332,203.625 189.377,204.822 189.565 C 206.836 189.880,206.932 189.861,206.100 189.304 C 204.981 188.556,204.704 175.960,205.752 173.452 L 206.305 172.130 203.411 172.155 L 200.516 172.181 201.058 173.477 M397.865 234.332 C 396.034 236.243,396.005 237.142,396.002 291.638 C 396.000 342.656,395.993 343.082,395.196 343.804 C 394.417 344.509,394.363 344.506,393.496 343.740 C 393.003 343.304,391.835 342.617,390.900 342.213 C 389.965 341.809,389.200 341.348,389.200 341.188 C 389.200 341.028,388.615 340.662,387.900 340.375 C 387.185 340.089,386.091 339.437,385.469 338.927 C 384.847 338.417,383.999 338.000,383.583 338.000 C 383.168 338.000,382.227 337.472,381.492 336.827 C 380.758 336.182,379.667 335.532,379.069 335.382 C 378.471 335.231,377.761 334.800,377.491 334.423 C 377.221 334.046,376.407 333.533,375.681 333.283 C 374.956 333.033,373.897 332.462,373.327 332.014 C 372.758 331.566,372.060 331.200,371.777 331.200 C 371.493 331.200,370.721 330.745,370.061 330.190 C 369.400 329.634,368.261 328.979,367.530 328.735 C 366.798 328.491,365.750 327.886,365.200 327.391 C 364.650 326.895,363.750 326.355,363.200 326.191 C 362.650 326.027,361.770 325.466,361.245 324.946 C 360.720 324.426,359.990 324.000,359.623 324.000 C 359.256 324.000,358.345 323.550,357.600 323.000 C 356.855 322.450,356.051 322.000,355.813 322.000 C 355.576 322.000,354.756 321.488,353.991 320.863 C 353.226 320.237,352.110 319.605,351.511 319.458 C 350.912 319.311,350.102 318.856,349.711 318.447 C 349.320 318.038,348.190 317.309,347.200 316.827 C 344.370 315.448,341.960 314.086,341.251 313.465 C 340.893 313.151,340.150 312.763,339.600 312.602 C 339.050 312.442,338.150 311.893,337.600 311.384 C 337.050 310.874,336.123 310.339,335.540 310.195 C 334.956 310.051,334.102 309.582,333.642 309.154 C 333.182 308.725,332.039 308.006,331.103 307.557 C 327.589 305.870,326.001 304.955,325.508 304.335 C 325.228 303.984,324.470 303.572,323.822 303.421 C 323.174 303.269,322.042 302.618,321.308 301.973 C 320.573 301.328,319.722 300.800,319.417 300.800 C 319.111 300.800,318.353 300.376,317.731 299.858 C 317.109 299.340,315.925 298.696,315.100 298.427 C 314.275 298.158,313.600 297.804,313.600 297.640 C 313.600 297.477,312.684 296.929,311.565 296.423 C 310.327 295.863,309.236 295.021,308.782 294.275 C 308.041 293.055,308.035 293.123,307.918 304.424 C 307.787 317.037,307.578 318.180,305.238 319.063 C 304.604 319.303,303.751 320.016,303.342 320.649 C 302.934 321.282,302.030 322.340,301.332 323.000 C 300.635 323.660,297.665 326.602,294.732 329.537 C 291.800 332.472,288.698 335.532,287.840 336.337 C 284.956 339.041,274.634 349.634,271.887 352.709 C 270.272 354.518,273.854 354.444,194.451 354.317 L 121.502 354.200 120.462 352.851 C 119.890 352.108,116.744 348.778,113.471 345.451 C 110.199 342.123,107.346 339.220,107.133 339.000 C 104.477 336.267,100.723 332.800,100.420 332.800 C 100.208 332.800,99.559 331.990,98.979 331.000 C 98.399 330.010,97.716 329.194,97.462 329.187 C 96.774 329.167,95.527 327.991,94.400 326.299 C 93.850 325.474,93.091 324.699,92.714 324.577 C 92.337 324.455,91.325 323.555,90.464 322.578 C 89.604 321.601,88.241 320.526,87.436 320.189 C 85.338 319.313,85.082 318.318,85.172 311.400 C 85.215 308.100,85.126 303.282,84.973 300.693 L 84.696 295.987 83.448 296.787 C 82.762 297.228,81.455 297.936,80.544 298.361 C 79.633 298.786,78.758 299.344,78.600 299.600 C 78.442 299.856,77.477 300.423,76.456 300.860 C 75.435 301.297,74.240 301.981,73.800 302.381 C 73.360 302.781,72.550 303.243,72.000 303.409 C 71.450 303.574,70.491 304.135,69.869 304.655 C 69.247 305.175,68.424 305.600,68.039 305.600 C 67.654 305.600,66.925 306.041,66.419 306.579 C 65.914 307.118,65.005 307.667,64.400 307.800 C 63.795 307.933,62.889 308.479,62.386 309.015 C 61.883 309.550,60.866 310.101,60.126 310.240 C 59.386 310.379,58.543 310.831,58.253 311.245 C 57.964 311.659,57.113 312.204,56.363 312.455 C 55.613 312.707,54.707 313.166,54.349 313.474 C 53.674 314.056,51.384 315.359,48.575 316.760 C 47.681 317.206,46.628 317.927,46.234 318.363 C 45.840 318.798,44.951 319.274,44.259 319.421 C 43.566 319.567,42.582 320.071,42.071 320.540 C 41.189 321.351,39.521 322.315,36.403 323.818 C 35.635 324.189,34.496 324.921,33.873 325.446 C 33.249 325.971,32.447 326.400,32.091 326.400 C 31.735 326.400,30.984 326.821,30.422 327.336 C 29.860 327.851,28.770 328.510,28.000 328.801 C 27.230 329.092,26.240 329.631,25.800 330.000 C 25.360 330.369,24.428 330.896,23.729 331.172 C 23.030 331.448,22.367 331.910,22.256 332.199 C 22.145 332.488,21.484 332.850,20.786 333.003 C 20.089 333.156,19.166 333.634,18.734 334.066 C 18.303 334.497,17.194 335.174,16.269 335.570 C 15.345 335.966,14.352 336.576,14.062 336.925 C 13.773 337.274,12.875 337.772,12.068 338.033 C 11.261 338.293,10.293 338.826,9.918 339.217 C 9.542 339.609,8.687 340.049,8.018 340.196 C 7.348 340.343,6.800 340.627,6.800 340.826 C 6.800 341.025,5.754 341.716,4.476 342.362 C 3.198 343.007,1.916 343.819,1.627 344.167 C 1.338 344.515,0.854 344.800,0.551 344.800 C 0.135 344.800,-0.000 345.495,-0.000 347.645 L -0.000 350.491 1.159 350.321 C 1.965 350.202,2.259 350.301,2.127 350.646 C 1.937 351.140,3.599 352.487,4.253 352.368 C 5.363 352.167,6.000 352.479,6.000 353.224 C 6.000 353.677,6.169 353.943,6.375 353.815 C 6.582 353.688,6.897 353.812,7.075 354.092 C 7.254 354.371,7.940 354.627,8.600 354.660 C 10.402 354.749,10.400 354.748,10.406 355.500 C 10.409 355.885,10.606 356.470,10.844 356.800 C 11.199 357.294,11.232 357.266,11.029 356.643 C 10.832 356.042,10.892 355.979,11.322 356.335 C 11.878 356.797,13.157 357.118,14.645 357.170 C 15.313 357.194,15.451 357.398,15.307 358.153 C 15.093 359.274,15.802 359.863,16.584 359.213 C 17.014 358.857,17.189 358.936,17.393 359.577 C 17.694 360.527,18.681 361.600,19.252 361.600 C 19.469 361.600,19.533 361.375,19.394 361.100 C 19.255 360.825,19.424 360.949,19.770 361.376 C 20.228 361.941,20.402 361.996,20.406 361.576 C 20.411 361.090,20.473 361.094,20.800 361.600 C 21.145 362.133,21.192 362.133,21.226 361.600 C 21.247 361.270,21.605 361.720,22.022 362.600 C 22.438 363.480,22.786 363.930,22.796 363.600 C 22.809 363.133,22.885 363.115,23.140 363.517 C 23.337 363.827,24.083 363.993,25.005 363.930 C 26.010 363.863,26.604 364.013,26.721 364.363 C 27.055 365.364,28.396 366.400,29.357 366.400 C 29.884 366.400,30.422 366.681,30.554 367.025 C 30.689 367.375,30.999 367.524,31.259 367.364 C 31.530 367.196,31.616 367.250,31.466 367.493 C 31.112 368.066,32.011 368.661,33.106 368.578 C 33.677 368.534,34.418 368.970,35.108 369.754 C 35.733 370.465,36.632 371.022,37.202 371.052 C 37.751 371.081,38.400 371.126,38.645 371.152 C 38.889 371.179,39.009 371.621,38.910 372.135 C 38.775 372.843,38.910 373.069,39.466 373.064 C 42.544 373.036,43.091 373.195,43.034 374.100 C 42.969 375.124,43.448 375.585,44.585 375.594 C 45.017 375.597,45.760 376.090,46.238 376.688 C 47.022 377.672,47.175 377.720,47.829 377.188 C 48.262 376.837,48.432 376.802,48.253 377.100 C 48.088 377.375,48.098 377.614,48.276 377.631 C 50.266 377.819,51.336 378.616,50.397 379.211 C 50.068 379.418,49.980 379.618,50.200 379.655 C 50.643 379.729,51.193 379.853,51.800 380.014 C 52.239 380.131,53.359 380.268,54.600 380.356 C 55.174 380.396,55.255 380.504,54.886 380.738 C 54.599 380.920,54.488 381.363,54.633 381.742 C 54.837 382.275,55.014 382.320,55.456 381.954 C 55.908 381.579,55.969 381.616,55.766 382.143 C 55.626 382.509,55.711 382.800,55.957 382.800 C 56.201 382.800,56.403 382.575,56.406 382.300 C 56.411 381.919,56.492 381.925,56.745 382.325 C 56.930 382.617,57.592 382.794,58.239 382.725 C 59.305 382.610,59.393 382.698,59.316 383.800 C 59.270 384.460,59.330 384.775,59.449 384.500 C 59.569 384.225,59.842 384.000,60.057 384.000 C 60.272 384.000,60.352 384.154,60.236 384.342 C 60.119 384.530,60.496 384.594,61.072 384.484 C 61.736 384.357,62.025 384.436,61.862 384.699 C 61.721 384.928,62.034 385.222,62.559 385.354 C 63.083 385.485,63.629 385.900,63.773 386.274 C 64.003 386.874,63.936 386.866,63.215 386.213 C 62.764 385.805,62.273 385.593,62.124 385.742 C 61.523 386.343,63.148 387.078,65.284 387.170 C 65.661 387.187,66.322 387.579,66.754 388.043 C 67.226 388.549,67.738 388.762,68.037 388.577 C 68.387 388.361,68.459 388.468,68.281 388.934 C 68.073 389.476,68.283 389.600,69.413 389.600 C 70.357 389.600,70.816 389.792,70.850 390.200 C 70.877 390.530,70.923 391.010,70.950 391.267 C 71.022 391.942,72.000 392.171,72.000 391.513 C 72.000 391.209,71.775 390.708,71.500 390.399 C 71.075 389.922,71.104 389.918,71.700 390.368 C 72.085 390.660,72.400 391.111,72.400 391.371 C 72.400 391.632,72.805 391.854,73.300 391.866 C 75.365 391.914,75.493 391.981,75.311 392.933 C 75.184 393.594,75.318 393.867,75.766 393.867 C 76.115 393.867,76.400 393.710,76.400 393.518 C 76.400 393.326,76.794 393.536,77.275 393.984 C 77.757 394.433,78.314 394.800,78.514 394.800 C 78.713 394.800,79.354 395.134,79.938 395.542 C 80.522 395.950,81.531 396.412,82.179 396.569 C 82.828 396.726,83.182 396.978,82.966 397.127 C 81.876 397.884,82.658 398.603,84.700 398.721 C 86.745 398.839,87.067 399.106,86.847 400.500 C 86.793 400.844,86.932 400.880,88.686 400.979 C 90.066 401.056,91.600 402.167,91.600 403.089 C 91.600 403.443,91.861 403.573,92.300 403.436 C 93.205 403.155,93.869 403.594,94.057 404.600 C 94.181 405.259,94.576 405.421,96.304 405.521 C 97.564 405.594,98.418 405.833,98.446 406.121 C 98.472 406.384,98.517 406.857,98.546 407.171 C 98.584 407.567,99.273 407.792,100.800 407.907 C 103.370 408.100,103.175 407.991,103.283 409.294 C 103.358 410.198,103.526 410.310,104.655 410.205 C 105.532 410.123,105.883 410.239,105.757 410.568 C 105.404 411.487,107.085 412.591,107.869 411.955 C 108.325 411.586,108.453 411.567,108.253 411.900 C 108.088 412.175,108.143 412.423,108.376 412.450 C 109.185 412.545,109.404 412.623,110.200 413.098 C 110.640 413.361,110.781 413.581,110.513 413.588 C 110.244 413.595,110.126 413.862,110.249 414.182 C 110.424 414.640,110.584 414.661,110.994 414.282 C 111.281 414.017,111.417 413.637,111.296 413.438 C 111.175 413.239,111.293 413.210,111.558 413.374 C 111.930 413.604,111.931 413.801,111.563 414.245 C 111.172 414.716,111.216 414.769,111.809 414.541 C 112.343 414.336,112.446 414.401,112.206 414.790 C 111.959 415.190,112.139 415.267,112.960 415.110 C 113.869 414.936,114.133 415.101,114.626 416.152 C 114.948 416.838,115.119 417.040,115.005 416.600 C 114.807 415.836,114.824 415.833,115.366 416.531 C 115.678 416.933,116.263 417.227,116.667 417.185 C 119.020 416.938,119.500 417.157,119.354 418.414 C 119.225 419.522,119.307 419.618,120.284 419.514 C 121.064 419.431,121.482 419.647,121.818 420.307 C 122.502 421.649,122.716 421.767,123.413 421.189 C 123.927 420.763,124.022 420.762,123.923 421.184 C 123.851 421.486,124.210 421.740,124.780 421.791 C 125.318 421.839,125.829 422.087,125.914 422.342 C 125.999 422.596,126.216 422.714,126.397 422.602 C 126.578 422.490,126.624 422.788,126.500 423.263 C 126.309 423.991,126.409 424.091,127.137 423.900 C 127.612 423.776,127.900 423.838,127.777 424.037 C 127.654 424.237,127.728 424.400,127.943 424.400 C 128.158 424.400,128.425 424.175,128.536 423.900 C 128.692 423.515,128.829 423.528,129.129 423.958 C 129.344 424.265,129.793 424.412,130.127 424.284 C 130.816 424.019,131.291 424.898,130.945 425.800 C 130.764 426.271,131.054 426.400,132.295 426.400 C 133.362 426.400,134.109 426.657,134.591 427.191 C 134.985 427.625,135.461 427.886,135.649 427.770 C 135.837 427.654,135.886 427.831,135.758 428.165 C 135.575 428.641,135.782 428.739,136.725 428.620 C 138.087 428.447,139.914 429.968,139.381 430.831 C 139.153 431.200,139.485 431.267,140.723 431.101 C 141.944 430.937,142.502 431.045,142.884 431.517 C 143.227 431.939,143.240 432.058,142.924 431.868 C 142.616 431.683,142.469 431.858,142.507 432.364 C 142.540 432.793,142.709 433.056,142.883 432.949 C 143.057 432.841,143.200 432.948,143.200 433.187 C 143.200 433.454,143.890 433.568,145.000 433.485 C 146.679 433.359,147.011 433.551,146.833 434.542 C 146.693 435.323,147.707 435.910,148.990 435.791 C 149.955 435.701,150.294 435.811,150.157 436.168 C 149.889 436.867,150.780 437.515,152.404 437.801 C 153.953 438.074,154.029 438.120,154.141 438.863 C 154.318 440.030,154.916 440.400,156.624 440.400 C 158.046 440.400,158.401 440.539,158.406 441.100 C 158.418 442.428,158.979 442.864,160.119 442.431 C 160.790 442.176,161.258 442.170,161.409 442.415 C 161.540 442.627,162.049 442.800,162.539 442.800 C 163.244 442.800,163.428 443.025,163.416 443.869 C 163.401 444.851,163.541 444.947,165.114 445.032 C 167.071 445.139,168.063 445.771,167.711 446.688 C 167.518 447.191,167.685 447.277,168.541 447.113 C 169.456 446.938,169.710 447.110,170.266 448.282 C 170.739 449.280,171.010 449.512,171.253 449.128 C 171.527 448.696,171.589 448.700,171.594 449.149 C 171.599 449.614,171.703 449.614,172.277 449.149 C 172.853 448.681,172.903 448.683,172.614 449.163 C 172.353 449.596,172.470 449.675,173.124 449.504 C 173.645 449.368,174.310 449.575,174.847 450.041 C 175.434 450.550,175.538 450.804,175.161 450.812 C 174.104 450.835,176.121 451.724,177.578 451.877 C 179.098 452.037,180.346 453.139,179.557 453.626 C 178.937 454.010,179.759 454.467,180.535 454.170 C 180.930 454.018,181.355 454.331,181.755 455.068 C 182.205 455.900,182.372 456.008,182.384 455.476 C 182.393 455.067,182.586 454.868,182.827 455.017 C 183.062 455.162,183.158 455.533,183.040 455.840 C 182.922 456.148,182.984 456.400,183.179 456.400 C 183.374 456.400,183.624 456.175,183.735 455.900 C 183.870 455.565,183.947 455.603,183.968 456.014 C 184.003 456.681,185.600 456.888,185.600 456.225 C 185.600 456.003,185.870 456.207,186.200 456.678 C 186.530 457.150,186.698 457.802,186.573 458.127 C 186.392 458.597,186.676 458.703,187.938 458.638 C 190.014 458.532,191.254 458.995,190.958 459.765 C 190.585 460.737,191.169 461.321,191.912 460.719 C 192.393 460.330,192.478 460.325,192.253 460.700 C 192.052 461.035,192.224 461.200,192.776 461.200 C 193.242 461.200,193.600 461.461,193.600 461.800 C 193.600 462.308,194.578 462.400,200.000 462.400 C 205.422 462.400,206.400 462.308,206.400 461.800 C 206.400 461.470,206.715 461.179,207.100 461.154 C 207.485 461.128,208.070 461.083,208.400 461.054 C 208.739 461.023,209.055 460.522,209.127 459.900 C 209.247 458.850,209.352 458.800,211.441 458.800 C 213.496 458.800,213.603 458.752,213.205 458.009 C 212.866 457.376,212.896 457.262,213.355 457.438 C 213.707 457.573,214.032 457.330,214.198 456.808 C 214.405 456.155,214.591 456.060,214.999 456.399 C 215.403 456.734,215.746 456.619,216.424 455.920 C 217.097 455.227,217.257 455.173,217.072 455.700 C 216.936 456.085,216.963 456.400,217.133 456.400 C 217.584 456.400,218.401 455.506,218.394 455.020 C 218.391 454.789,218.197 454.870,217.963 455.200 C 217.586 455.733,217.557 455.733,217.700 455.200 C 217.791 454.863,218.425 454.545,219.146 454.474 C 220.205 454.369,220.472 454.141,220.665 453.174 C 220.909 451.956,221.086 451.884,223.714 451.939 C 224.590 451.957,225.128 451.808,224.991 451.585 C 224.860 451.373,224.920 451.200,225.124 451.200 C 225.329 451.200,225.474 450.795,225.448 450.300 C 225.404 449.474,225.549 449.411,227.226 449.530 C 229.067 449.661,230.368 448.918,229.828 448.045 C 229.494 447.505,230.130 447.185,231.876 447.016 C 232.960 446.910,233.674 446.510,234.515 445.536 C 235.149 444.801,235.541 444.442,235.386 444.738 C 235.189 445.116,235.329 445.232,235.853 445.127 C 236.368 445.024,236.595 444.640,236.584 443.889 C 236.571 442.947,236.732 442.795,237.784 442.763 C 241.467 442.652,241.399 442.677,241.415 441.400 C 241.430 440.227,241.474 440.201,243.363 440.253 C 244.426 440.282,245.085 440.176,244.829 440.018 C 244.497 439.813,244.563 439.566,245.058 439.165 C 245.440 438.854,245.626 438.813,245.470 439.072 C 245.314 439.332,245.370 439.658,245.593 439.796 C 245.821 439.936,246.000 439.668,246.000 439.186 C 246.000 438.662,246.313 438.243,246.800 438.116 C 247.240 438.001,247.600 437.773,247.600 437.609 C 247.600 437.445,248.045 437.396,248.588 437.500 C 249.357 437.647,249.680 437.462,250.043 436.665 C 250.424 435.828,250.709 435.682,251.606 435.861 C 252.270 435.994,252.826 435.882,253.013 435.578 C 253.207 435.264,253.161 435.177,252.889 435.345 C 252.650 435.493,252.717 435.088,253.037 434.447 C 253.466 433.587,253.827 433.334,254.409 433.487 C 254.883 433.610,255.200 433.494,255.200 433.198 C 255.200 432.823,255.334 432.813,255.749 433.158 C 256.495 433.777,257.615 433.304,257.307 432.501 C 257.140 432.067,257.219 431.965,257.559 432.175 C 257.895 432.382,258.013 432.244,257.927 431.743 C 257.821 431.131,258.023 431.028,259.120 431.135 C 259.846 431.206,260.701 431.048,261.020 430.783 C 261.339 430.519,261.607 430.459,261.616 430.651 C 261.624 430.843,261.891 430.402,262.208 429.672 C 262.526 428.941,262.952 428.447,263.156 428.573 C 263.679 428.896,264.842 428.391,264.574 427.958 C 264.452 427.761,264.569 427.600,264.832 427.600 C 265.096 427.600,265.526 427.308,265.787 426.950 C 266.049 426.593,266.740 426.300,267.324 426.300 C 268.485 426.300,269.419 425.479,269.011 424.818 C 268.732 424.366,269.113 424.276,271.062 424.337 C 271.868 424.362,272.411 424.149,272.565 423.747 C 272.711 423.366,273.061 423.214,273.448 423.363 C 273.962 423.560,274.041 423.416,273.844 422.634 C 273.620 421.741,273.702 421.671,274.800 421.810 C 275.460 421.894,276.000 421.810,276.000 421.624 C 276.000 421.438,276.279 421.178,276.621 421.047 C 276.977 420.911,277.137 420.978,276.997 421.205 C 276.610 421.831,277.449 421.664,277.996 421.005 C 278.267 420.678,278.400 420.177,278.291 419.893 C 278.159 419.550,278.444 419.380,279.134 419.388 C 279.881 419.397,280.327 419.089,280.710 418.300 C 281.129 417.436,281.540 417.189,282.622 417.150 C 283.380 417.123,284.180 417.055,284.400 417.000 C 284.620 416.945,284.980 416.877,285.200 416.850 C 285.784 416.777,285.690 415.601,285.100 415.594 C 284.757 415.590,284.782 415.472,285.181 415.220 C 285.500 415.018,285.905 414.942,286.081 415.050 C 286.256 415.158,286.400 415.057,286.400 414.824 C 286.400 414.355,287.267 414.419,287.633 414.916 C 288.047 415.475,290.102 414.444,289.856 413.801 C 289.610 413.161,290.704 412.402,291.473 412.678 C 292.092 412.901,294.400 411.702,294.400 411.157 C 294.400 410.925,293.770 411.124,293.000 411.600 C 292.230 412.076,291.600 412.271,291.600 412.033 C 291.600 411.795,291.851 411.600,292.157 411.600 C 292.464 411.600,292.803 411.370,292.911 411.089 C 293.019 410.807,293.713 410.533,294.453 410.479 C 296.789 410.309,297.296 410.017,297.095 408.961 C 296.898 407.934,296.970 407.904,299.681 407.877 C 300.495 407.868,301.079 407.728,300.978 407.565 C 300.878 407.402,301.021 407.177,301.298 407.066 C 301.684 406.910,301.678 406.856,301.271 406.832 C 300.184 406.767,301.849 405.676,303.234 405.546 C 303.985 405.475,304.732 405.233,304.894 405.009 C 305.078 404.753,305.190 404.796,305.194 405.124 C 305.203 405.902,305.994 405.267,306.424 404.137 C 306.630 403.595,306.958 403.251,307.154 403.371 C 307.349 403.492,307.612 403.196,307.739 402.713 C 307.865 402.230,308.089 401.956,308.237 402.103 C 308.616 402.482,310.070 401.637,309.798 401.197 C 309.672 400.992,310.208 400.914,311.022 401.019 C 312.831 401.250,313.406 400.935,312.719 400.088 C 312.427 399.727,312.399 399.566,312.655 399.719 C 312.913 399.874,313.193 399.670,313.304 399.246 C 313.465 398.628,313.813 398.524,315.334 398.638 C 316.405 398.718,317.284 398.588,317.446 398.326 C 317.599 398.079,317.546 397.986,317.328 398.121 C 317.111 398.255,316.933 398.120,316.933 397.821 C 316.933 397.500,317.181 397.371,317.536 397.508 C 317.974 397.675,318.068 397.555,317.882 397.069 C 317.731 396.675,317.825 396.385,318.113 396.363 C 318.381 396.343,319.285 396.293,320.122 396.251 C 321.583 396.179,322.381 395.564,322.394 394.500 C 322.397 394.225,322.738 394.000,323.151 394.000 C 323.564 394.000,324.149 393.695,324.451 393.323 C 324.925 392.739,324.918 392.695,324.400 393.000 C 323.882 393.305,323.875 393.261,324.349 392.677 C 324.651 392.305,325.326 392.000,325.849 392.000 C 326.372 392.000,326.800 391.850,326.800 391.667 C 326.800 391.483,327.062 391.333,327.382 391.333 C 327.703 391.333,327.872 391.483,327.759 391.667 C 327.645 391.850,327.853 392.000,328.219 392.000 C 328.637 392.000,328.803 391.784,328.663 391.420 C 328.515 391.033,328.633 390.915,329.020 391.063 C 329.384 391.203,329.600 391.037,329.600 390.619 C 329.600 390.193,329.420 390.061,329.100 390.253 C 328.737 390.471,328.745 390.374,329.129 389.901 C 329.420 389.541,329.933 389.353,330.270 389.482 C 330.606 389.611,331.040 389.465,331.234 389.158 C 331.487 388.759,331.589 388.743,331.594 389.100 C 331.597 389.375,331.924 389.600,332.320 389.600 C 333.118 389.600,334.003 388.870,333.994 388.220 C 333.991 387.989,333.813 388.070,333.600 388.400 C 333.373 388.752,333.210 388.805,333.206 388.529 C 333.195 387.689,334.326 386.902,335.376 387.017 C 336.120 387.099,336.400 386.942,336.400 386.445 C 336.400 385.677,337.141 384.797,337.780 384.806 C 338.011 384.809,337.930 384.987,337.600 385.200 C 337.164 385.482,337.143 385.589,337.524 385.594 C 337.812 385.597,337.924 385.799,337.774 386.043 C 337.583 386.351,337.396 386.321,337.156 385.943 C 336.892 385.525,336.811 385.569,336.806 386.133 C 336.798 387.108,337.677 386.781,338.278 385.585 C 338.601 384.944,339.110 384.629,339.843 384.617 C 340.440 384.608,341.005 384.375,341.098 384.100 C 341.211 383.764,341.025 383.686,340.533 383.862 C 339.958 384.068,339.997 383.947,340.719 383.299 C 341.421 382.668,342.011 382.516,343.219 382.655 C 344.539 382.806,344.801 382.718,344.806 382.118 C 344.811 381.508,344.871 381.490,345.200 382.000 C 345.512 382.483,345.589 382.419,345.594 381.676 C 345.598 381.043,345.443 380.847,345.100 381.053 C 344.704 381.291,344.705 381.224,345.103 380.732 C 345.380 380.390,346.054 380.160,346.601 380.220 C 347.149 380.280,347.683 380.189,347.789 380.018 C 347.894 379.847,348.461 379.799,349.048 379.911 C 350.021 380.097,350.097 380.022,349.913 379.058 C 349.705 377.967,349.941 377.832,351.807 377.972 C 352.587 378.031,354.171 376.874,354.459 376.035 C 354.537 375.810,355.185 375.581,355.900 375.528 C 356.615 375.474,357.200 375.269,357.200 375.072 C 357.200 374.875,356.885 374.824,356.500 374.958 C 355.833 375.190,355.833 375.176,356.500 374.657 C 356.885 374.357,357.200 373.907,357.200 373.656 C 357.200 373.404,357.808 373.200,358.557 373.200 C 359.419 373.200,360.002 372.972,360.154 372.575 C 360.286 372.231,360.565 372.055,360.773 372.184 C 360.982 372.312,361.521 372.022,361.972 371.538 C 362.423 371.054,362.915 370.782,363.066 370.933 C 363.217 371.084,363.799 370.801,364.358 370.304 C 364.918 369.807,365.146 369.701,364.866 370.068 C 364.431 370.637,364.462 370.719,365.078 370.622 C 365.517 370.554,365.750 370.237,365.673 369.814 C 365.604 369.432,365.720 369.227,365.931 369.358 C 366.143 369.488,366.418 369.329,366.543 369.004 C 366.683 368.639,367.029 368.513,367.450 368.675 C 367.911 368.852,368.038 368.785,367.842 368.468 C 367.683 368.211,367.728 368.000,367.943 368.000 C 368.158 368.000,368.424 368.225,368.535 368.500 C 368.667 368.828,368.748 368.783,368.768 368.370 C 368.831 367.130,370.502 366.025,372.005 366.231 C 373.350 366.415,373.371 366.398,372.600 365.761 C 371.808 365.106,371.808 365.102,372.686 365.309 C 373.585 365.521,373.785 364.883,373.000 364.306 C 372.643 364.044,373.513 363.935,376.800 363.832 C 377.621 363.806,377.788 363.613,377.733 362.759 C 377.674 361.852,377.804 361.734,378.733 361.844 C 380.155 362.012,381.247 361.651,381.111 361.058 C 381.050 360.793,381.180 360.582,381.400 360.588 C 381.620 360.595,381.751 360.748,381.690 360.930 C 381.630 361.111,381.780 361.136,382.025 360.985 C 382.270 360.833,382.384 360.383,382.280 359.985 C 382.154 359.504,382.267 359.328,382.614 359.461 C 383.244 359.702,384.899 358.884,384.638 358.461 C 384.180 357.720,385.234 357.161,387.234 357.084 C 389.276 357.005,389.407 356.937,389.527 355.900 C 389.649 354.837,390.241 354.555,391.900 354.770 C 392.175 354.806,392.403 354.602,392.406 354.318 C 392.410 353.948,392.520 353.971,392.789 354.397 C 393.090 354.872,393.268 354.892,393.663 354.497 C 394.040 354.120,394.044 354.000,393.680 354.000 C 392.656 354.000,394.760 352.497,396.148 352.236 C 397.052 352.066,397.850 351.590,398.249 350.981 C 398.603 350.442,399.141 350.000,399.446 350.000 C 399.915 350.000,400.000 341.089,400.000 291.600 C 400.000 228.365,400.134 231.964,397.865 234.332 M210.900 264.298 C 213.265 264.369,217.135 264.369,219.500 264.298 C 221.865 264.228,219.930 264.170,215.200 264.170 C 210.470 264.170,208.535 264.228,210.900 264.298 M200.925 265.149 C 201.752 266.145,201.818 278.018,201.005 279.591 C 200.214 281.121,200.401 281.448,201.666 280.747 C 202.180 280.463,202.712 280.261,202.849 280.298 C 202.985 280.335,203.525 280.456,204.049 280.566 C 204.572 280.676,205.438 280.893,205.973 281.049 L 206.947 281.332 206.073 279.919 C 204.984 278.156,204.764 268.219,205.761 265.831 L 206.322 264.488 203.386 264.533 C 200.888 264.571,200.520 264.663,200.925 265.149 M34.066 369.837 C 34.140 370.215,34.515 370.570,34.900 370.627 C 35.782 370.756,35.777 370.729,34.766 369.864 C 33.992 369.201,33.941 369.199,34.066 369.837 M66.000 388.289 C 66.000 388.792,67.143 389.790,67.412 389.521 C 67.518 389.415,67.244 389.002,66.802 388.602 C 66.361 388.203,66.000 388.062,66.000 388.289 M78.453 395.825 C 78.812 396.183,79.442 396.408,79.853 396.323 C 80.407 396.209,80.238 396.040,79.200 395.671 C 77.906 395.210,77.850 395.221,78.453 395.825 M261.260 430.030 C 260.270 430.952,260.133 430.976,260.133 430.222 C 260.133 429.904,260.238 429.656,260.367 429.670 C 261.195 429.759,261.604 429.510,261.632 428.900 C 261.653 428.434,261.734 428.378,261.875 428.730 C 261.991 429.021,261.715 429.606,261.260 430.030 M233.783 445.572 C 233.909 445.777,233.802 446.075,233.545 446.234 C 233.238 446.424,233.184 446.349,233.388 446.019 C 233.620 445.643,233.457 445.583,232.750 445.783 C 232.017 445.991,231.937 445.956,232.400 445.632 C 233.146 445.110,233.488 445.095,233.783 445.572 M166.075 446.025 C 166.171 446.314,166.486 446.629,166.775 446.725 C 167.075 446.825,167.225 446.675,167.125 446.375 C 167.029 446.086,166.714 445.771,166.425 445.675 C 166.125 445.575,165.975 445.725,166.075 446.025 " stroke="none" fill="#64dcfc" fill-rule="evenodd"></path><path id="path4" d="M121.800 99.273 C 121.360 99.519,118.880 101.899,116.288 104.560 C 113.696 107.222,111.446 109.533,111.288 109.695 C 111.130 109.857,109.272 111.667,107.159 113.717 C 105.047 115.767,103.247 117.614,103.159 117.822 C 103.072 118.030,102.160 118.875,101.133 119.700 C 100.105 120.525,98.889 121.809,98.429 122.553 C 97.969 123.297,97.092 124.113,96.480 124.367 C 95.868 124.620,95.029 125.456,94.615 126.223 C 94.202 126.991,93.301 127.967,92.613 128.392 C 91.925 128.817,90.789 129.878,90.089 130.749 C 89.321 131.705,88.334 132.439,87.601 132.600 C 84.944 133.183,84.836 136.828,85.440 205.600 C 85.644 228.770,85.600 228.380,88.157 229.673 C 89.179 230.189,95.631 236.323,105.230 245.904 C 113.716 254.374,121.119 261.545,121.680 261.839 C 124.968 263.562,134.021 263.981,172.200 264.177 C 188.260 264.260,202.030 264.344,202.800 264.365 C 203.570 264.386,209.483 264.295,215.941 264.164 C 222.398 264.033,228.272 264.037,228.994 264.172 C 233.924 265.097,234.063 280.052,229.151 281.189 C 226.639 281.770,203.551 280.884,202.846 280.179 C 202.751 280.084,202.404 280.230,202.076 280.503 C 201.611 280.889,190.895 281.069,154.239 281.307 C 128.257 281.476,104.030 281.647,100.400 281.687 C 96.770 281.727,92.094 281.679,90.009 281.580 L 86.218 281.400 85.678 283.000 C 84.984 285.053,84.864 316.764,85.543 318.489 C 85.806 319.157,86.537 319.814,87.436 320.189 C 88.241 320.526,89.604 321.601,90.464 322.578 C 91.325 323.555,92.337 324.455,92.714 324.577 C 93.091 324.699,93.850 325.474,94.400 326.299 C 95.527 327.991,96.774 329.167,97.462 329.187 C 97.716 329.194,98.399 330.010,98.979 331.000 C 99.559 331.990,100.208 332.800,100.420 332.800 C 100.723 332.800,104.477 336.267,107.133 339.000 C 107.346 339.220,110.199 342.123,113.471 345.451 C 116.744 348.778,119.890 352.108,120.462 352.851 L 121.502 354.200 194.451 354.317 C 273.854 354.444,270.272 354.518,271.887 352.709 C 274.634 349.634,284.956 339.041,287.840 336.337 C 288.698 335.532,291.800 332.472,294.732 329.537 C 297.665 326.602,300.635 323.660,301.332 323.000 C 302.030 322.340,302.934 321.282,303.342 320.649 C 303.751 320.016,304.604 319.303,305.238 319.063 C 308.226 317.936,308.135 319.802,307.684 268.800 C 307.322 227.799,307.362 228.496,305.334 227.654 C 304.710 227.395,303.755 226.533,303.212 225.738 C 302.668 224.943,295.153 217.226,286.512 208.590 C 277.870 199.953,270.800 192.696,270.800 192.464 C 270.800 192.231,270.207 191.589,269.483 191.036 L 268.166 190.032 235.983 189.844 C 197.806 189.621,205.793 189.621,182.175 189.844 C 166.833 189.988,162.206 189.916,160.975 189.513 L 159.400 188.997 159.301 182.800 C 159.114 171.068,158.622 171.293,183.600 171.688 C 193.610 171.846,202.430 171.969,203.200 171.962 C 240.457 171.606,291.912 171.632,295.889 172.010 C 300.504 172.448,300.934 172.425,303.584 171.605 C 308.253 170.160,308.005 171.202,307.970 153.138 C 307.935 135.948,307.880 135.534,305.435 134.153 C 304.611 133.688,303.614 132.788,303.221 132.153 C 302.827 131.519,302.076 130.580,301.552 130.067 C 296.415 125.035,275.342 103.939,273.783 102.268 C 272.674 101.079,271.198 99.813,270.503 99.453 C 268.910 98.630,123.264 98.452,121.800 99.273 M269.171 100.385 C 269.567 100.596,270.108 101.295,270.374 101.938 C 270.640 102.580,271.655 103.678,272.629 104.378 C 273.603 105.077,274.400 105.782,274.400 105.944 C 274.400 106.106,280.263 112.080,287.429 119.219 C 296.195 127.952,301.036 133.083,302.221 134.900 C 303.191 136.385,304.132 137.600,304.312 137.600 C 306.179 137.600,307.643 164.980,305.891 167.123 C 304.419 168.924,306.877 168.868,234.600 168.761 C 197.200 168.706,165.616 168.698,164.412 168.744 C 160.723 168.883,157.806 171.152,156.839 174.634 C 156.147 177.129,156.269 188.587,157.004 190.008 C 158.200 192.321,155.133 192.193,211.600 192.281 C 240.310 192.326,264.548 192.437,265.461 192.528 C 268.050 192.785,298.796 223.610,301.998 229.159 L 304.102 232.804 304.151 259.502 L 304.200 286.200 305.300 292.171 C 307.356 303.331,306.880 312.420,304.070 315.685 C 303.447 316.408,302.384 317.818,301.706 318.819 C 301.028 319.819,293.772 327.338,285.582 335.526 C 277.392 343.715,270.401 350.997,270.046 351.708 C 269.605 352.589,269.018 353.080,268.200 353.253 C 266.083 353.698,124.025 353.642,123.190 353.195 C 122.773 352.972,122.136 352.164,121.774 351.401 C 121.411 350.637,120.538 349.656,119.832 349.220 C 119.127 348.784,118.292 347.946,117.977 347.357 C 117.662 346.769,116.607 345.678,115.632 344.934 C 114.657 344.190,113.538 343.052,113.145 342.406 C 112.753 341.760,111.710 340.755,110.828 340.171 C 109.947 339.588,109.123 338.787,108.997 338.391 C 108.871 337.995,107.921 336.986,106.884 336.149 C 105.848 335.313,104.833 334.352,104.628 334.014 C 104.424 333.676,103.547 332.770,102.680 332.000 C 101.812 331.230,100.809 330.245,100.451 329.811 C 100.093 329.377,99.099 328.387,98.242 327.611 C 97.385 326.835,96.395 325.863,96.042 325.451 C 93.625 322.629,89.662 319.088,88.193 318.438 C 85.826 317.391,85.824 317.373,86.150 299.812 C 86.450 283.649,86.332 284.275,89.079 284.301 C 116.849 284.564,200.467 284.265,201.499 283.900 C 202.486 283.550,203.358 283.555,205.124 283.920 C 209.532 284.830,229.652 284.568,231.770 283.572 C 235.098 282.008,235.778 280.380,235.932 273.600 C 236.111 265.742,235.218 263.270,231.652 261.753 C 229.902 261.008,232.816 261.057,196.000 261.152 C 165.036 261.233,131.641 260.946,126.525 260.556 C 123.002 260.287,125.241 262.201,105.600 242.667 C 95.959 233.079,88.878 226.344,88.110 226.033 C 86.344 225.318,86.465 228.327,86.255 180.000 C 86.051 133.276,85.972 135.298,88.047 134.580 C 89.473 134.086,119.801 104.299,121.931 101.300 L 122.854 100.000 195.654 100.000 C 241.493 100.000,268.719 100.142,269.171 100.385 " stroke="none" fill="#9eddef" fill-rule="evenodd"></path></g></svg>